<?xml version="1.0" encoding="UTF-8"?>
<svg id="Calque_1" data-name="Calque 1" xmlns="http://www.w3.org/2000/svg" viewBox="0 0 1656.02 1072.94">
  <defs>
    <style>
      .cls-1 {
        fill: #fcfbf4;
      }

      .cls-1, .cls-2 {
        font-family: Vollkorn-Regular, Vollkorn;
        font-size: 220.99px;
        font-variation-settings: 'wght' 400;
      }

      .cls-3 {
        font-family: LucidaCalligraphy-Italic, 'Lucida Calligraphy';
        font-size: 104.8px;
        font-style: italic;
      }

      .cls-3, .cls-4, .cls-5, .cls-6 {
        fill: #4f272f;
      }

      .cls-7 {
        fill: #af7481;
        stroke-width: 15.89px;
      }

      .cls-7, .cls-8, .cls-9, .cls-4, .cls-10, .cls-11 {
        stroke-miterlimit: 10;
      }

      .cls-7, .cls-9 {
        stroke: #4f272f;
      }

      .cls-8 {
        stroke: #fcfbf5;
      }

      .cls-8, .cls-10, .cls-11 {
        fill: none;
      }

      .cls-8, .cls-11 {
        stroke-width: 1.93px;
      }

      .cls-9 {
        fill: #fcfbf5;
        stroke-width: 1.38px;
      }

      .cls-4 {
        stroke: #7d4454;
        stroke-width: 2.38px;
      }

      .cls-2 {
        fill: #68454a;
      }

      .cls-6 {
        font-family: Cygnet, Cygnet;
        font-size: 51.77px;
      }

      .cls-10 {
        stroke: #1d1d1b;
        stroke-width: 5.22px;
      }

      .cls-12 {
        fill: #8b4852;
      }

      .cls-13 {
        opacity: .38;
      }

      .cls-11 {
        stroke: #fcfbf4;
      }
    </style>
  </defs>
  <path class="cls-7" d="M1648.07,639.15c0,138.2-108.37,251.14-244.76,258.39h-199.74c-92.64,102.81-226.87,167.46-376.16,167.46s-283.17-64.49-375.81-167.08h-184.9c-142.93,0-258.77-115.87-258.77-258.77s115.83-258.77,258.77-258.77c28.72,0,56.33,4.67,82.13,13.31C417.27,195.23,605.7,52.68,827.42,52.68s410.37,142.71,478.71,341.37c26.12-8.86,54.1-13.66,83.21-13.66,142.9,0,258.74,115.87,258.74,258.77Z"/>
  <line class="cls-10" x1="1203.58" y1="897.54" x2="1203.55" y2="897.54"/>
  <path class="cls-9" d="M884.48,280.73c.27.33,3.12-2.07,3.5-2.4,11.78-10.24,24.49-24.51,37.19-33.21,3.64-2.5,11.49-4.46,11.37,2.16-.03,1.76-1.23,4.85-2.37,6.19-4,4.71-13.08,11.6-18.13,15.86-10.19,8.6-20.9,16.61-31.13,25.17l-.8,1.4c.51,2.72.39,5.49.38,8.24-.02,13.76-.05,27.76,0,41.5.03,8.66-.41,17.32.27,25.93l44.16,39.61c2.32,3.12,5.67,5.3,7.15,9.02-1,.8-9.25-5.14-10.59-6.14-13.33-9.95-25.87-22.55-39.18-32.3-.48-.35-1.02-.89-1.61-.91-.94,5.86.35,12.07-.42,18.06-.61,4.75-2.01,6.21-5.96,8.8-6.84,4.48-16.08,6.15-24.04,7.45-1.66,4.77,1.84,10.22-2.89,13.73-6.87,5.09-29.13,5.06-35.97-.19-4.45-3.42-.76-8.96-2.84-13.34-8.32-1.95-22.94-4.17-28.17-11.62-3.31-4.71-1.44-15.24-1.59-21.11-.07-2.93-2.74-.07-3.95.87-12.71,9.93-24.92,21.71-37.88,31.21-2.97,2.18-6,4.4-9.57,5.51-.82-.81,6.26-8.26,7.2-9.19,13.49-13.32,29-25.46,42.89-38.45l.85-.9.35-76.81c-16.43-13.77-33.64-26.78-49.35-41.41-5.89-8.12-.61-13.89,8.09-8.76,4.27,2.51,12.48,10.34,16.65,13.97,7.51,6.53,15.59,15.62,23.17,21.43.44.34.55.85,1.31.65,1.17-6.83-2.08-19.33,1.83-25.07,4.9-7.19,20.83-9.44,28.59-11.64.78-1.18-.16-11.72.18-14.25.71-5.19,11.82-6.9,15.99-7.19,6.03-.42,19.3.2,23.61,4.81.37.4.73.74.9,1.29.8,2.55-.54,14.75.61,15.56,8.42,1.92,20.78,3.71,27.14,10.03,2.33,2.31,2.83,4.18,3.07,7.43.19,2.57-.61,18.29-.02,19.04ZM816.85,231.61c5.35,4.33,28.68,4.53,33.53-.5.32-.34.96-.72.85-1.27-6.74-5.44-19.93-5.6-28.08-3.66-1.96.47-9.64,2.72-6.3,5.42ZM850.8,234.83c-3.59.86-7.07,2.09-10.77,2.57-5.99.78-12.31.47-18.18-.95-1.21-.29-5.1-2.06-5.38-2.04-1.51.07.78,2.16,1.09,2.4,1.21.97,2.62,1.46,3.94,2.17-.77,1.12-.84.25-1.43.13-1.41-.28-2.78-.83-4.25-.78.49,2.52,3.58,2.94,4.81,4.8l-4.59-.88c-1.36,1.86,5.04,4.2,5.03,4.6-.99,1.01-4.93-1.52-5.25,0-.26,1.26,4.26,3.45,5.25,3.93-.03.81-3.51-.29-4.04-.35-1.92-.25-1.07,1.43-.2,2.18.3.26,4.74,2.01,3.8,2.76-.53.42-3.77-1.76-4.81-.66.64.74,1.29,1.31,2.16,1.77,6.99,3.7,21.59,3.53,28.99.95.46-.16,4.84-2.05,3.83-2.94-2.41.47-4.74,1.56-7.22,1.74-.86.06-2.8.49-2.4-.87,3.46-.04,8.34-1.65,10.06-4.81-.35-.26-7.04,1.78-8.55,1.76-.67,0-1.34-.13-1.51-.89,3.75.01,7.71-1.9,10.06-4.81-2.62.11-5.58,1.57-8.14,1.71-.48.03-1.92-.09-1.91-.83,1.71.02,3.83-.68,5.41-1.37.5-.22,5.12-2.64,4.21-3.44-2.98.78-6.04,1.1-9.07,1.65-.85.15-.52-.03-.55-.77,2.1-.21,4.68-.99,6.58-1.95.64-.33,4.02-2.27,3.04-3.29l-6.39,1.69-3.66-.38c.76.06,1.45,0,2.19-.22.58-.17,9.33-3.3,7.87-4.59ZM751.35,254.68c-2.5-2.1-10.32-9.37-12.93-9.64-.7-.07-1.11-.12-1.32.7,1.61-.17,2.85.99,4.08,1.83,9.27,6.31,21.34,18.62,29.82,26.58,3.87,3.64,7.43,7.74,11.58,10.95.97-1.29-4.37-5.95-5.45-7.01-8.13-7.93-17.1-16.11-25.78-23.42ZM930.4,245.32c-2.13-.3-3.24.18-4.9,1.33-6.89,4.77-14.71,12.91-21.05,18.63-17.66,15.95-34.92,32.25-52.76,48.04-9.15,8.1-19.77,16.07-28.44,24.47-.7.67-2.7,2.25-2.12,3.22l1.69.75c4.62-4.6,9.89-8.48,14.88-12.7,13.21-11.19,25.97-22.27,37.82-34.77,10.8-11.4,24.5-24.05,36.3-34.52,4.03-3.58,12.49-11.53,16.87-13.77.65-.33,1.78.1,1.72-.67ZM813.19,247.5c-9.41.34-39.99,8.3-21.66,20.56,1.54,1.03,3.65,1.42,4.6,3.04-3.97-.27-6.95-3.23-10.5-4.37v6.78c0,1.07,4.42,9.36,5.33,10.85,3.61,5.87,5.45,7.91,12.08,10.22,7.32,2.54,14.83,2.93,22.38,4.08.1.76-.99.41-1.52.43-5.48.21-11.63-.29-17.02-1.36-3.58-.71-9.5-3.97-3.09,1.78,6.95,6.24,15.63,10.44,24.26,13.78-.02.53-1.32.11-1.75,0-17.21-4.41-31.37-18.29-40.45-33l-.16,6.71c3.25,15.46,11.85,27.45,26.33,34.02,2.45,1.11,5.13,1.13,7.74,1.45-8.96,1.67-18.5-.04-26.99-3.19l-7.13-4.9v17.71c0,.72,5.59,11.44,6.45,12.79,1.27,1.98,7.17,9.18,9.18,9.67.79.19,3.23-2.08,4.05-2.77.96-.81,6.64-5.84,6.52-6.5-5.51-5.04-11.99-9.23-16.59-15.14.32-.3,3.26,2.24,3.71,2.63,1.08.95,1.98,2.12,3.08,3.04,7.87,6.54,16.58,12.18,25.57,17.07.1.81-.91.38-1.32.23-1.69-.61-6.19-3.61-7.54-3.23l-10.8,9.34c8.42,5.78,17.7,10.53,27.55,13.34l-.21.86c-9.85-2.46-19.21-6.61-27.76-12.04l-2.53.14-11.43,10.03c-.42,1.63,5.55,4.69,6.51,6.25-1.68.34-8.04-4.89-8.52-4.8-.86.16-.55,1.04-.32,1.62.79,2.01,3.7,4.36,4.9,6.25-.4.33-4.3-2.55-4.92-3.05-.65-.53-1.05-1.92-1.95-2.15-1.02-.26-2.51,1.24-2.25,2.25.56,2.25,6.69,8.93,8.68,10.61,8.16,6.87,17.26,9.53,27.1,12.69.55.18,2.09.51,2.2,1.07-4.6-.65-9.76-1.98-14.22-3.48-9.6-3.24-19.07-8.71-24.48-17.49-1,.71-.72,1.63-.45,2.63,1.61,5.99,10.56,11.46,16.41,12.23-.09.77-2.34.5-2.84.44-4.12-.54-8.64-3.09-11.82-5.69-.73-.6-.39-1.71-1.95-1.31-1.31,11.67,11.52,14.74,20.12,17.71.38.96-.97.67-1.49.61-2.56-.33-6.73-1.68-9.24-2.57-3.3-1.18-6.15-2.44-8.74-4.81-.56,1.79,2.85,4,4.27,4.91,17.29,11.12,66.9,11.14,84.59.85,2.51-1.46,4.03-3.08,5.11-5.82.28-.71,2-6.14.49-6.06-4.93,5.89-12.59,8.75-19.81,10.8-7.6,2.15-16.92,3.58-24.79,3.65-2.86.03-5.81-.84-8.76-.46l-1.52-.43c13.49.03,28.65-2,41.22-7.1,7.5-3.05,13.94-9.11,14.66-17.7.11-1.29-.65-2.89.09-4.49-.99-.94-3.26,3.02-3.92,3.73-7.38,7.85-19.88,12.89-30.53,14.08-.48.05-1.49.51-1.4-.31,7.17-2.56,14.61-4.41,21.28-8.24,5.22-3,11.65-8.68,13.33-14.65.23-.83,1.49-6.87-.07-6.2-1.08,1.14-2.14,2.22-3.44,3.12-12.61,8.79-35.51,11.11-50.56,10.21l-7.22-1.3c7.64.08,15.31-.05,22.9-.94,4.55-.53,10.98-1.43,15.34-2.59.61-.16,1.18-.28,1.12-1.07-10.25-2.18-20.64-4.75-30.17-9.19-.76-.36-1.87-.65-2.19-1.52,3.58.79,6.9,2.65,10.4,3.8,6.57,2.17,14.87,4.26,21.75,4.93,5.91.57,10.26.62,15.22-3.13,2.77-2.09,5.39-6.04,5.54-9.54-3.02,1.42-6.13,3.5-9.61,3.28,4.27-2.64,12.18-4.73,10.49-11.15-1.28.66-2.53,1.55-3.92,1.98-.43.13-1.4.61-1.31-.22,2.93-1.66,5.31-4.03,6.12-7.44l-5.83,4.01c-3.65,2.21-7.85,2.83-11.93,3.82l-9.36.92c.68,1.02,2.69,1.32,3.85,1.62,3.56.91,7.12.94,10.67,1.57.55.1,2.12.08,2.1.74-9.53.25-19.04-1.6-27.84-5.17-9.73-3.94-18.23-10.16-27.25-15.39-.07-.83.87-.39,1.29-.2,1.05.49,1.52,1.59,3.07.86l9.63-8.75c-2.49-.81-5.16-.44-7.68-1.08-.73-.19-1.27.44-1.06-.88h11.15l6.77-5.9-5.24-2.4c2.31-.39,4.97,2.01,6.99,1.08l19.68-17.49c.17-.92-.35-.72-1-.57-7.48,1.77-13.66,3.19-21.5,3.43-3.01.09-6.03.04-8.98-.46l27.11-3.94c.14-1.14-.02-.69-.64-.88-1.8-.56-3.5-.2-5.16-.53-5.28-1.03-11.56-3.44-15.63-6.89,7.69,3.49,16.19,5.59,24.73,5.26,1.36-.05,4.71-.35,5.9-.66,1.8-.46,12.62-10.01,14.21-12.03.46-.58,2.33-2.95.86-3.51-5.22,6.32-15.71,9.6-23.73,10.82-.5.08-2.29.54-2.29-.32,10.33-3.82,25.85-6.51,27.55-19.68-.52-.53-3.9,2.35-4.8,2.85-9.88,5.48-23.35,6.59-34.34,8.51-7.59.51-15.14.32-22.74,0-.53-.02-1.63.33-1.52-.43,14.51.23,29.38-1.16,43.39-4.94,5.25-1.42,12.64-3.76,16.75-7.3,1.39-1.19,4.57-3.93,2.61-5.69-8.74,7.22-21.51,7.87-32.37,9.61l-4.15-.43c5.52-.57,11.55-1.55,16.98-2.92,8.39-2.12,30.52-9.71,14.64-19.3-6.09-3.67-14.96-5.67-22-6.21l.2,4.39c2.21,1.05,8.12,2.49,9.21,4.79.4.84.25,1.2-.45,1.75-.27.11-.31-1.11-.63-1.55-.96-1.31-7.62-3.68-8.26-2.73-.06,1.71-.73,2.8-2.05,3.85-6.68,5.34-30.74,5.39-37.17-.44-.38-.34-1.53-1.63-1.53-1.97v-8.09ZM760.53,267.8c-7.11-4.92-14.21-14.29-21.27-18.75-.86-.54-1.56-.81-2.6-.67-.33,1.73,1.06,2.65,2.18,3.72,5.51,5.26,12.59,10.14,18.47,15.1,7.5,6.32,14.78,13.06,22.43,19.21.54.43,2.96,2.42,2.19.43l-21.41-19.04ZM930.83,248.38c-2.5-.12-4.42,2.04-6.21,3.52-4.25,3.52-8.4,7.88-12.59,11.57-9.25,8.15-18.86,15.97-27.56,24.69.86.19,1.18-.2,1.77-.63,2.91-2.11,5.82-5.31,8.63-7.65,9.2-7.66,18.78-14.99,27.86-22.76,1.35-1.16,7.31-6.14,7.76-7.1.26-.54.42-1.02.33-1.63ZM778.24,286.62,927.77,255.38c-.87-.2-1.18.22-1.77.63-6.46,4.45-12.93,10.89-19.01,15.97-6.49,5.42-16.08,12.15-21.65,18.15-.45.48-1.03.76-.86,1.54l43.29-36.29ZM785.64,299.97v9.4c0,.53,3.24,4.21,3.93,4.81,5.22,4.57,13.46,5.87,20.12,6.77-2.38-1.92-5.74-2.83-8.44-4.45-7.5-4.49-9.74-8.98-14.42-15.76-.36-.51-.35-.95-1.2-.77ZM877.92,300.41l-7.58,5.77-2.04,2.53c.5.44,7.17-4.71,7.89-5.44.37-.38,2.08-2.49,1.73-2.86ZM870.93,316.6c2.83-1.71,9.52-6.11,10.03-9.43.07-.48.46-6.04-.19-5.87-1.64,1.12-2.35,2.89-3.93,4.38-4.8,4.52-10.34,5.19-15.49,8.13-3.78,2.16-7.66,7.06-11.41,9.57-.01.57,2.36.86,2.96.97,4.44.8,16.27,1.82,20.34.91,4.27-.95,7.16-7.89,7.27-11.87l-1.05-.71c-2.23,2.35-5.18,4.08-8.31,4.81l-.22-.87ZM872.67,332.76c3.03-2.33,7.23-5.43,7.22-9.61-11.32,10-27.91,10.91-42.42,11.33-1.29.41-9.09,6.99-10.49,8.35-.42.41-.83.57-.66,1.3,1.2,1.73,15.01,1.46,17.7,1.32,4.88-.25,9.59-1.12,14.31-2.31,2.56-.65,5.13-2.04,7.78-2.06-.01.62-1.24.86-1.76,1.07-9.19,3.72-19.85,5.11-29.72,5.49,4.44,3.68,11.05,4.83,16.45,6.97,5.49-1.4,11.84-1.88,17.13-3.79,8.11-2.94,14.36-12.91,13.21-21.55-2.86,1.27-5.41,3.57-8.74,3.49ZM853.87,326.21c-3.14-.5-6.1-2.26-8.3,1.09.51.76.68.57,1.4.54,1.89-.06,5.53-.33,6.9-1.63ZM866.55,327.52c-2.73.64-6.48-1.1-8.92-.87-1.49.14-5.01,1.99-7.24,2.42s-5.04.31-7.14.73c-1.22.25-5.35,3-4.25,4.27.87.12,1.13-.71,1.98-.86,2.68-.49,6.55-.44,9.55-.94,3.71-.62,12.45-2.13,15.46-3.77.51-.28.74.01.56-.98ZM785.64,339.54c.04,2.47,0,4.96,0,7.43,0,3.6,9.62,10.25,13.27,10.23l.74-1.05c0-1.14-3.73-3.35-4.67-4.31-1.82-1.85-4.32-5.35-5.76-7.58-.58-.9-2.83-5.79-3.36-5.82-1.08-.06-.22,1.03-.22,1.08ZM812.94,350c.6-.55,2.56-1.68,2.41-2.53-.14-.79-1.73-1.64-2.4-.74-17.69,15.44-35.19,31.04-52.59,46.79-4.3,3.89-9.09,7.29-12.77,11.83.86,0,1.74-.8,2.39-1.32,7.74-6.2,14.93-13.21,22.43-19.65,13.27-11.38,27.65-22.59,40.52-34.38ZM788.28,365.56c.49.07.86.02,1.31-.21.48-.25,5.49-4.51,5.92-5.01.27-.32.76-.58.64-1.1l-10.49-6.79c-.51,4.68,1.23,8.81,2.63,13.11ZM908.35,394.6c-7.15-6.48-14.73-14.07-22.11-20.09-.3-.25-1.6-1.21-1.75-1.08-.9,2.1,1.47,3.2,2.61,4.6l30.41,26.01.64-.86c-3.45-2.57-6.6-5.67-9.79-8.57ZM845.55,416.28c-5.48.15-10.92.56-16.42.46-1.63-.03-8.28-1.34-8.94.2l.65.66-5.02-.88c-.47.4,1.81,2.58,2.17,2.85,1.12.84,2.65.92,3.08,2.17l-5.25-1.09c-.16,2.82,3.77,2.91,4.81,5.02l-4.11-1.02-.7,1.23c8.2,4.99,24.56,5.54,33.1,1.4.83-.4,3.26-1.62,1.22-2.29l-8.95,1.77c-.22-1.35.37-.68,1.07-.88,3.11-.85,6.38-1.51,8.55-4.16-.43-2.07-1.41-.18-2.52.11-2,.53-4.98.63-7.1.98-.23-1.37.42-.66,1.08-.87,3.22-.99,6.18-1.5,8.54-4.17.64-1.53-2.93.1-3.32.18-1.91.39-6.09,1.66-7.17.05,1.67.19,2.81-.08,4.29-.76.62-.29,1.19.26.96-.99Z"/>
  <path class="cls-9" d="M813.19,247.5v8.09c0,.34,1.16,1.62,1.53,1.97,6.43,5.83,30.49,5.78,37.17.44,1.32-1.05,1.98-2.13,2.05-3.85.63-.95,7.3,1.43,8.26,2.73.32.44.36,1.66.63,1.55.7-.55.85-.9.45-1.75-1.1-2.3-7-3.74-9.21-4.79l-.2-4.39c7.04.54,15.91,2.54,22,6.21,15.88,9.58-6.25,17.17-14.64,19.3-5.42,1.37-11.46,2.35-16.98,2.92l4.15.43c10.86-1.74,23.62-2.39,32.37-9.61,1.95,1.76-1.23,4.49-2.61,5.69-4.11,3.54-11.5,5.88-16.75,7.3-14.01,3.78-28.88,5.17-43.39,4.94-.1.76.99.41,1.52.43,7.6.31,15.15.51,22.74,0,10.99-1.92,24.47-3.03,34.34-8.51.9-.5,4.28-3.38,4.8-2.85-1.69,13.17-17.21,15.86-27.55,19.68,0,.86,1.79.4,2.29.32,8.02-1.22,18.51-4.5,23.73-10.82,1.47.56-.4,2.93-.86,3.51-1.59,2.02-12.41,11.56-14.21,12.03-1.19.31-4.54.61-5.9.66-8.54.33-17.04-1.77-24.73-5.26,4.07,3.45,10.35,5.86,15.63,6.89,1.66.33,3.36-.03,5.16.53.62.19.77-.26.64.88l-27.11,3.94c2.95.5,5.98.56,8.98.46,7.83-.24,14.02-1.66,21.5-3.43.65-.15,1.17-.35,1,.57l-19.68,17.49c-2.01.93-4.68-1.47-6.99-1.08l5.24,2.4-6.77,5.9h-11.15c-.21,1.33.33.7,1.06.88,2.52.64,5.19.27,7.68,1.08l-9.63,8.75c-1.55.72-2.02-.37-3.07-.86-.42-.2-1.36-.64-1.29.2,9.02,5.22,17.53,11.45,27.25,15.39,8.8,3.56,18.32,5.42,27.84,5.17.02-.65-1.55-.64-2.1-.74-3.55-.63-7.11-.67-10.67-1.57-1.15-.29-3.16-.6-3.85-1.62l9.36-.92c4.08-.98,8.27-1.61,11.93-3.82l5.83-4.01c-.81,3.4-3.19,5.77-6.12,7.44-.09.83.88.36,1.31.22,1.39-.43,2.64-1.32,3.92-1.98,1.69,6.42-6.22,8.51-10.49,11.15,3.49.21,6.6-1.86,9.61-3.28-.15,3.5-2.76,7.45-5.54,9.54-4.97,3.75-9.31,3.7-15.22,3.13-6.88-.67-15.17-2.76-21.75-4.93-3.5-1.16-6.83-3.02-10.4-3.8.32.87,1.43,1.16,2.19,1.52,9.53,4.44,19.93,7.02,30.17,9.19.06.79-.51.91-1.12,1.07-4.36,1.16-10.79,2.06-15.34,2.59-7.59.88-15.26,1.02-22.9.94l7.22,1.3c15.05.89,37.95-1.42,50.56-10.21,1.3-.91,2.36-1.98,3.44-3.12,1.56-.67.31,5.37.07,6.2-1.68,5.98-8.11,11.65-13.33,14.65-6.67,3.83-14.11,5.68-21.28,8.24-.09.82.92.36,1.4.31,10.65-1.19,23.16-6.23,30.53-14.08.66-.7,2.93-4.67,3.92-3.73-.74,1.6.02,3.2-.09,4.49-.72,8.59-7.16,14.66-14.66,17.7-12.57,5.11-27.73,7.13-41.22,7.1l1.52.43c2.96-.38,5.9.49,8.76.46,7.87-.07,17.19-1.49,24.79-3.65s14.88-4.91,19.81-10.8c1.51-.08-.21,5.34-.49,6.06-1.08,2.74-2.6,4.36-5.11,5.82-17.69,10.29-67.3,10.27-84.59-.85-1.42-.91-4.83-3.13-4.27-4.91,2.59,2.37,5.45,3.64,8.74,4.81,2.51.9,6.68,2.24,9.24,2.57.52.07,1.87.35,1.49-.61-8.6-2.98-21.43-6.04-20.12-17.71,1.57-.4,1.22.71,1.95,1.31,3.18,2.6,7.7,5.15,11.82,5.69.51.07,2.75.33,2.84-.44-5.85-.77-14.8-6.25-16.41-12.23-.27-1-.54-1.92.45-2.63,5.41,8.78,14.88,14.25,24.48,17.49,4.46,1.5,9.62,2.84,14.22,3.48-.1-.56-1.65-.9-2.2-1.07-9.85-3.16-18.95-5.82-27.1-12.69-1.99-1.68-8.11-8.35-8.68-10.61-.25-1.01,1.23-2.51,2.25-2.25.9.23,1.3,1.62,1.95,2.15.61.5,4.52,3.37,4.92,3.05-1.21-1.88-4.11-4.23-4.9-6.25-.23-.58-.54-1.46.32-1.62.48-.09,6.84,5.14,8.52,4.8-.95-1.56-6.93-4.62-6.51-6.25l11.43-10.03,2.53-.14c8.55,5.43,17.91,9.58,27.76,12.04l.21-.86c-9.84-2.81-19.13-7.56-27.55-13.34l10.8-9.34c1.35-.38,5.86,2.62,7.54,3.23.41.15,1.42.58,1.32-.23-8.98-4.89-17.69-10.53-25.57-17.07-1.11-.92-2-2.09-3.08-3.04-.44-.39-3.39-2.93-3.71-2.63,4.59,5.91,11.07,10.1,16.59,15.14.11.67-5.56,5.7-6.52,6.5-.83.69-3.26,2.96-4.05,2.77-2-.49-7.91-7.69-9.18-9.67-.87-1.35-6.45-12.07-6.45-12.79v-17.71l7.13,4.9c8.48,3.16,18.03,4.86,26.99,3.19-2.6-.32-5.28-.34-7.74-1.45-14.48-6.57-23.07-18.56-26.33-34.02l.16-6.71c9.09,14.71,23.25,28.59,40.45,33,.43.11,1.73.53,1.75,0-8.64-3.35-17.31-7.54-24.26-13.78-6.4-5.75-.48-2.49,3.09-1.78,5.39,1.07,11.53,1.57,17.02,1.36.53-.02,1.63.33,1.52-.43-7.54-1.15-15.06-1.54-22.38-4.08-6.63-2.31-8.48-4.35-12.08-10.22-.92-1.49-5.33-9.77-5.33-10.85v-6.78c3.54,1.14,6.53,4.1,10.5,4.37-.96-1.62-3.06-2.01-4.6-3.04-18.33-12.26,12.25-20.22,21.66-20.56ZM844.25,266.74c1.1.12,2.14.51,3.28.48,5.46-.17,22.43-1.74,26.04-5.49,3.58-3.72-1.03-6.55-4.23-8.04-3.24-1.5-6.79-2.2-10.21-3.12l11.51,5.76c5.91,4.41-2.25,5.55-5.73,6.8l-20.65,3.61ZM803.57,252.75c-.25-.92-.55-.67-1.21-.59-6.24.78-16.74,6.14-8.19,12.4,7.63,5.58,31.96,8.85,41.52,8.76l17.3-1.77-1.52-.43c-12.21.99-24.14.09-36.09-2.4-5.34-1.11-12.7-2.77-17.51-5.23-9.31-4.77.53-8.49,5.7-10.74ZM821.06,265c-4.01-.86-11.46-2.6-14.41-5.49-.91-.89-.79-1.84-1.76-2.39-.32,6,7.98,7.25,12.51,8.25l3.66-.38ZM862.61,400.1c-10.72-.34-21.51-.92-31.92-3.5-.24,1.33.4.67,1.03.91,4.19,1.62,12.64,3.52,17.12,3.89,2.65.22,10.32.43,12.67,0,.75-.14,1.23-.47,1.09-1.31Z"/>
  <path class="cls-9" d="M872.67,332.76c3.34.08,5.89-2.22,8.74-3.49,1.14,8.64-5.1,18.61-13.21,21.55-5.29,1.92-11.64,2.4-17.13,3.79-5.4-2.14-12.01-3.29-16.45-6.97,9.87-.38,20.53-1.77,29.72-5.49.52-.21,1.75-.45,1.76-1.07-2.64.02-5.21,1.41-7.78,2.06-4.72,1.19-9.43,2.05-14.31,2.31-2.7.14-16.51.41-17.7-1.32-.17-.72.24-.88.66-1.3,1.4-1.36,9.2-7.94,10.49-8.35,14.51-.42,31.1-1.33,42.42-11.33.01,4.18-4.19,7.28-7.22,9.61Z"/>
  <path class="cls-9" d="M850.8,234.83c1.46,1.29-7.29,4.42-7.87,4.59-.74.22-1.42.28-2.19.22l3.66.38,6.39-1.69c.98,1.03-2.4,2.97-3.04,3.29-1.9.96-4.48,1.75-6.58,1.95.03.74-.29.93.55.77,3.03-.55,6.09-.87,9.07-1.65.91.8-3.71,3.22-4.21,3.44-1.58.69-3.7,1.39-5.41,1.37-.01.74,1.44.86,1.91.83,2.57-.14,5.52-1.6,8.14-1.71-2.35,2.91-6.31,4.82-10.06,4.81.17.76.84.88,1.51.89,1.5.02,8.2-2.03,8.55-1.76-1.72,3.16-6.6,4.77-10.06,4.81-.4,1.35,1.53.93,2.4.87,2.48-.18,4.81-1.27,7.22-1.74,1,.89-3.37,2.78-3.83,2.94-7.4,2.58-22,2.75-28.99-.95-.87-.46-1.52-1.04-2.16-1.77,1.03-1.11,4.28,1.08,4.81.66.94-.75-3.5-2.5-3.8-2.76-.86-.75-1.72-2.43.2-2.18.52.07,4.01,1.16,4.04.35-.99-.48-5.51-2.67-5.25-3.93.32-1.53,4.26,1.01,5.25,0,.02-.4-6.39-2.74-5.03-4.6l4.59.88c-1.23-1.87-4.32-2.28-4.81-4.8,1.47-.05,2.84.5,4.25.78.59.12.66.99,1.43-.13-1.33-.72-2.74-1.21-3.94-2.17-.3-.24-2.6-2.33-1.09-2.4.29-.01,4.17,1.75,5.38,2.04,5.87,1.42,12.2,1.73,18.18.95,3.69-.48,7.18-1.71,10.77-2.57Z"/>
  <path class="cls-9" d="M845.55,416.28c.24,1.25-.34.7-.96.99-1.48.68-2.62.96-4.29.76,1.08,1.61,5.26.34,7.17-.05.39-.08,3.96-1.71,3.32-.18-2.36,2.66-5.32,3.18-8.54,4.17-.66.2-1.31-.51-1.08.87,2.12-.35,5.1-.46,7.1-.98,1.11-.29,2.08-2.18,2.52-.11-2.17,2.64-5.43,3.3-8.55,4.16-.7.19-1.29-.47-1.07.88l8.95-1.77c2.04.66-.39,1.88-1.22,2.29-8.54,4.14-24.9,3.59-33.1-1.4l.7-1.23,4.11,1.02c-1.04-2.11-4.98-2.2-4.81-5.02l5.25,1.09c-.43-1.25-1.95-1.33-3.08-2.17-.36-.27-2.64-2.45-2.17-2.85l5.02.88-.65-.66c.66-1.54,7.31-.23,8.94-.2,5.5.1,10.94-.31,16.42-.46Z"/>
  <path class="cls-9" d="M870.93,316.6l.22.87c3.13-.73,6.08-2.47,8.31-4.81l1.05.71c-.11,3.98-3,10.92-7.27,11.87-4.07.91-15.9-.11-20.34-.91-.6-.11-2.97-.4-2.96-.97,3.75-2.51,7.63-7.41,11.41-9.57,5.14-2.94,10.68-3.6,15.49-8.13,1.58-1.49,2.29-3.25,3.93-4.38.65-.17.27,5.4.19,5.87-.51,3.32-7.21,7.72-10.03,9.43Z"/>
  <path class="cls-9" d="M930.4,245.32c.05.77-1.07.34-1.72.67-4.38,2.23-12.83,10.18-16.87,13.77-11.79,10.47-25.49,23.13-36.3,34.52-11.85,12.5-24.6,23.58-37.82,34.77-4.98,4.22-10.26,8.1-14.88,12.7l-1.69-.75c-.59-.98,1.42-2.55,2.12-3.22,8.67-8.4,19.29-16.37,28.44-24.47,17.84-15.78,35.1-32.09,52.76-48.04,6.34-5.72,14.15-13.86,21.05-18.63,1.67-1.15,2.77-1.63,4.9-1.33Z"/>
  <path class="cls-9" d="M812.94,350c-12.87,11.79-27.24,22.99-40.52,34.38-7.51,6.44-14.69,13.44-22.43,19.65-.65.52-1.53,1.32-2.39,1.32,3.68-4.53,8.47-7.93,12.77-11.83,17.4-15.75,34.9-31.35,52.59-46.79.67-.9,2.26-.05,2.4.74.15.85-1.81,1.98-2.41,2.53Z"/>
  <path class="cls-9" d="M816.85,231.61c-3.34-2.71,4.34-4.96,6.3-5.42,8.15-1.94,21.33-1.79,28.08,3.66.11.55-.52.94-.85,1.27-4.85,5.03-28.18,4.83-33.53.5ZM847.25,228.75c-4.67-1.78-10.02-2.37-15.05-2.25-2.83.07-7.68.61-10.35,1.45-5.66,1.79.46,3.62,3.08,4.11,4.55.86,17.84,1.21,21.64-1.25.86-.56.91-1.03.68-2.06Z"/>
  <path class="cls-9" d="M785.64,299.97c.85-.18.84.26,1.2.77,4.68,6.78,6.91,11.26,14.42,15.76,2.7,1.62,6.06,2.53,8.44,4.45-6.66-.9-14.9-2.2-20.12-6.77-.69-.6-3.93-4.28-3.93-4.81v-9.4Z"/>
  <path class="cls-9" d="M930.83,248.38c.09.61-.08,1.09-.33,1.63-.46.96-6.41,5.94-7.76,7.1-9.08,7.77-18.67,15.1-27.86,22.76-2.81,2.34-5.72,5.54-8.63,7.65-.59.43-.91.82-1.77.63,8.7-8.72,18.31-16.54,27.56-24.69,4.18-3.69,8.34-8.05,12.59-11.57,1.79-1.48,3.71-3.64,6.21-3.52Z"/>
  <path class="cls-9" d="M760.53,267.8l21.41,19.04c.78,1.99-1.65,0-2.19-.43-7.66-6.15-14.93-12.89-22.43-19.21-5.89-4.96-12.96-9.84-18.47-15.1-1.12-1.07-2.51-1.99-2.18-3.72,1.04-.14,1.74.13,2.6.67,7.06,4.46,14.16,13.83,21.27,18.75Z"/>
  <path class="cls-9" d="M785.64,339.54c0-.06-.86-1.14.22-1.08.53.03,2.77,4.92,3.36,5.82,1.44,2.23,3.94,5.72,5.76,7.58.94.96,4.67,3.17,4.67,4.31l-.74,1.05c-3.65.01-13.27-6.63-13.27-10.23,0-2.48.04-4.96,0-7.43Z"/>
  <path class="cls-9" d="M866.55,327.52c.18.99-.04.7-.56.98-3.01,1.64-11.76,3.15-15.46,3.77-3,.5-6.87.45-9.55.94-.85.16-1.11.98-1.98.86-1.1-1.28,3.03-4.02,4.25-4.27,2.09-.42,4.83-.28,7.14-.73s5.74-2.29,7.24-2.42c2.44-.23,6.19,1.52,8.92.87Z"/>
  <path class="cls-9" d="M751.35,254.68c8.68,7.3,17.65,15.48,25.78,23.42,1.08,1.05,6.42,5.72,5.45,7.01-4.14-3.21-7.7-7.31-11.58-10.95-8.48-7.96-20.54-20.27-29.82-26.58-1.23-.84-2.47-2-4.08-1.83.21-.82.62-.77,1.32-.7,2.61.27,10.43,7.53,12.93,9.64Z"/>
  <path class="cls-9" d="M788.28,365.56c-1.4-4.3-3.14-8.43-2.63-13.11l10.49,6.79c.12.52-.37.78-.64,1.1-.43.5-5.44,4.76-5.92,5.01-.44.23-.82.28-1.31.21Z"/>
  <path class="cls-9" d="M927.77,255.38l-43.29,36.29c-.17-.78.41-1.06.86-1.54,5.57-5.99,15.16-12.73,21.65-18.15,6.08-5.08,12.55-11.52,19.01-15.97.59-.41.9-.83,1.77-.63Z"/>
  <path class="cls-9" d="M908.35,394.6c3.2,2.9,6.34,6,9.79,8.57l-.64.86-30.41-26.01c-1.14-1.4-3.51-2.49-2.61-4.6.15-.13,1.45.83,1.75,1.08,7.38,6.01,14.96,13.61,22.11,20.09Z"/>
  <path class="cls-9" d="M877.92,300.41c.35.37-1.36,2.48-1.73,2.86-.72.73-7.39,5.88-7.89,5.44l2.04-2.53,7.58-5.77Z"/>
  <path class="cls-9" d="M853.87,326.21c-1.37,1.3-5.01,1.57-6.9,1.63-.71.02-.89.21-1.4-.54,2.2-3.35,5.16-1.58,8.3-1.09Z"/>
  <path class="cls-9" d="M803.57,252.75c-5.17,2.25-15.01,5.97-5.7,10.74,4.8,2.46,12.16,4.12,17.51,5.23,11.95,2.49,23.88,3.39,36.09,2.4l1.52.43-17.3,1.77c-9.56.09-33.9-3.18-41.52-8.76-8.55-6.26,1.95-11.63,8.19-12.4.66-.08.96-.32,1.21.59Z"/>
  <path class="cls-9" d="M844.25,266.74l20.65-3.61c3.48-1.25,11.64-2.39,5.73-6.8l-11.51-5.76c3.43.91,6.97,1.61,10.21,3.12,3.2,1.49,7.81,4.32,4.23,8.04-3.61,3.75-20.58,5.32-26.04,5.49-1.14.03-2.17-.36-3.28-.48Z"/>
  <path class="cls-9" d="M862.61,400.1c.13.84-.34,1.17-1.09,1.31-2.35.43-10.03.21-12.67,0-4.48-.37-12.93-2.27-17.12-3.89-.63-.24-1.27.42-1.03-.91,10.41,2.57,21.2,3.15,31.92,3.5Z"/>
  <path class="cls-9" d="M821.06,265l-3.66.38c-4.53-1-12.83-2.26-12.51-8.25.97.54.86,1.5,1.76,2.39,2.95,2.89,10.4,4.63,14.41,5.49Z"/>
  <path class="cls-9" d="M847.25,228.75c.23,1.03.18,1.5-.68,2.06-3.8,2.46-17.09,2.11-21.64,1.25-2.62-.49-8.74-2.32-3.08-4.11,2.67-.84,7.52-1.39,10.35-1.45,5.02-.12,10.37.47,15.05,2.25Z"/>
  <text class="cls-3" transform="translate(517.98 364.45) rotate(-51.94) scale(.94 1)"><tspan x="0" y="0">M</tspan></text>
  <text class="cls-3" transform="translate(587.81 279.28) rotate(-37.15) scale(.94 1)"><tspan x="0" y="0">u</tspan></text>
  <text class="cls-3" transform="translate(640.62 239.68) rotate(-27.5) scale(.94 1)"><tspan x="0" y="0">r</tspan></text>
  <text class="cls-3" transform="translate(687.29 214.68) rotate(-18.32) scale(.94 1)"><tspan x="0" y="0">d</tspan></text>
  <text class="cls-3" transform="translate(747.56 195.03) rotate(-9.45) scale(.94 1)"><tspan x="0" y="0">e</tspan></text>
  <text class="cls-3" transform="translate(797.94 186.4) rotate(-1.47) scale(.94 1)"><tspan x="0" y="0">r</tspan></text>
  <text class="cls-3" transform="translate(851.62 185.56) rotate(4.93) scale(.94 1)"><tspan x="0" y="0"> </tspan></text>
  <text class="cls-3" transform="translate(882.21 186.61) rotate(12.63) scale(.94 1)"><tspan x="0" y="0">P</tspan></text>
  <text class="cls-3" transform="translate(953.1 202.63) rotate(22.64) scale(.94 1)"><tspan x="0" y="0">a</tspan></text>
  <text class="cls-3" transform="translate(1011.59 227.22) rotate(31.44) scale(.94 1)"><tspan x="0" y="0">r</tspan></text>
  <text class="cls-3" transform="translate(1057.05 255.24) rotate(38.82) scale(.94 1)"><tspan x="0" y="0">t</tspan></text>
  <text class="cls-3" transform="translate(1090.88 281.09) rotate(47.24) scale(.94 1)"><tspan x="0" y="0">y</tspan></text>
  <g class="cls-13">
    <path class="cls-12" d="M747.73,343.53c.13-.09-.14-.99.81-1.26,2.59-.72,6.35,2.26,9.28.21.58.18,1.14,7.01,1.15,8.27-1.41-1.77-1.42-3.67-3.8-4.99-2.47-1.37-5.07-1.3-7.44-2.25Z"/>
    <path class="cls-12" d="M1004.88,873.77c-2.49-4.01-1.43-6.77.28-10.84-5.11-3.62-6.55-8.55-2.52-13.93,3.45-4.6,12.33,7.83,9.91,12.11l6.06,1.62c-.32-7.02,7.35-4.6,6.14,1.57h-4.37c.44,4.99,1.84,8.27-.48,13.31l-15.01-3.84Z"/>
    <path class="cls-12" d="M978.27,866.98l-10.24-2.61,1.17-4.34c3.56-2.57,3.41,1.3,4.46,2.45,1.34,1.48,4.15,2.13,4.61,4.5Z"/>
    <path class="cls-12" d="M865.2,634.65l-.57,2.64c4.45-.86,6.25,6.31,7.42,6.83.76.34,1.99-.14,2.82.13,2.25.73,3.14,2.53,3.87,4.61,4.23-.27.32-2.91.17-5.85-.11-2.16.53-4.1,1.08-6.14-1.48-1.31-1.52,1.1-2.12.96-5.28-1.2,2.18-4.59,3.3-6.51,2.35.99,6.4.98,8.31,2.53.65.52,1.09,2.06,1.92,2.91,2.07,2.12,3.56,2.15,4.02,5.71.59,4.55-2.01,6.4-2.02,7.59,0,.8,1.49,1.12,1.58,2.09.08.79-.55,1.97-.44,3,.33,3.01,1.52,6.79.17,9.46l5.64.71c-.07-1.56-2.32-3.34-2.33-4.74,0-3.18,8.72-6.17,11.1-2.49,2.71,4.2-.38,6.41-.52,8.85-.04.72,1.6,1.09,1.65,2.09.06,1.22-1.3,2.24-1.29,3.61,0,2.23,2.38,5.45,1.76,8.87-.68,3.77-3.79,4.68-5.54,7.58,7.43,1.82,5.97,12.12-.99,12.53-4.22.25-9.42-6.13-6.88-10.17-5.99-1.13-10.96-2.54-13.51-8.51l-1.07.04c-1.77,2.08-3.38,2.73-6.11,2.4-1.96-.24-10.89-3.34-11.95-4.39-5.33-5.29,3-8.69,6.17-11.18-5.77-2.77-.21-8.33-1-10.71-.09-.27-3.48-2.07-4.49-3.41-1.25-1.66-1.14-4.23-1.76-4.89-2.25-2.36-6.19-1.65-5.85-7.39.17-2.83,2.8-4.29,2.88-5.17.11-1.16-1.81-2.42-.51-4.04,1.66-2.07,3.39-.89,5.08.47Z"/>
    <path class="cls-12" d="M668.27,566.94c.72-.58,7.05.76,8.03-3.57.7-3.09-6.02-6.26-5.6-9.68l-4.33.24,5.25-3.53c.3-4.94,4.99-9.28,2.87-14.02,5.64,3.67,6.96-6.3,13.5-1.65-.23-11.11,11.93-15.38,19.72-7.93l2.06,7.01c4.57.53,8.59-.7,7.65-6.1l3.83,3.83,3.32-.55-2.46,3.71c-1.7-1.77-11.64-.1-12.03,1.65-.2.9.84,1.96.64,3.05-.87,4.72-2.49,2.87-4.95,3.26-1.01.16-1.64,1.42-3,1.83-1.44.44-5.44.03-5.87.9-.24,1.57.95,3.26.84,4.74-.14,1.88-1.26,2.66-1.51,3.84-.27,1.23.97,2.53.95,3.98-.09,6.64-5.56,9.49-11.57,8.9-.58,2.09,1.71,2.93,1.58,5.13-.95,15.92-20.66,4.43-7.66-4.15l-1.43-1.48c-3.07-.43-3.96,4.08-5.45,5-1.01.63-2.92-.05-4.52,1.65-2.36,2.5-.48,5.12-4.93,5.34-1.56.08-3.18-.52-4.76-.31-2.68-3.96,5.36-2.29,6.81-4.01l3.03-7.09Z"/>
    <path class="cls-12" d="M771.31,484.18c-.19,1.92,2.16,2.11,3.57,3.37.8.72,1.09,2.42,1.95,2.83,3.22,1.54,6.23-2.64,9.28-1.1l-.96,4.05c3.03,2.3,7.12,2.08,9.78,4.91,1.16,1.24,3.43,5.03,2.43,6.57-1.49,2.29-8.73-1.27-10.02-1.3-.42,0-7.85,2.58-7,3.94.54,2.18,5.42,2.59,4.25,6.53-.73,2.45-2.8,1.48-4.46,1.83-7.28,1.55-12.71,3.76-20.31.93-3.46-1.29-7.3-6.25-7.17,1.07,4.25-2.74,8.95-.39,6.65,4.82-1.83,2.35-5.44,1.75-6.8-.68-.56-1,.34-2.68-.88-2.95-1.72,3.73,1.12,10.32-5.73,5.7l.67-3.29c-2.7-.84-4.55-3.12-4.07-6.02.35-2.11,2-2.5,2.7-3.83.66-1.27.47-2.93,1.64-5,.9-1.59,2.75-2.96,3.26-4.38,1.08-2.96-1.14-3.82,1.43-8.24,2.87-4.95,4.85-4.17,9.14-6.07,3.34-1.48,6.54-3.85,10.64-3.7Z"/>
    <path class="cls-12" d="M747.73,343.53c-2.09-.84-8.78-4.37-9.66-6.14-.36-.72-2.24-6.82-2.12-7.46.43-2.28,3.08-3.08,3.15-4.13.07-1.01-3.21-5.94-2.26-7.95l2.14.17-.33,3.97c1.4,1.2,6.2,1.91,7.19.28,1.29-2.11-1.16-2.44-1.98-3.37-.96-1.08.53-1.67.76-1.6.27.08,1.21,2.32,2.26,2.48.52.08,1.38-.73,2.28-.54,1.96.42,4.44,2.17,7.23,1.77.82-.47-1.66-6.07-1.67-7.41-.02-1.37.57-.92,1.53-.62.18,2.22.84,7.9,2.3,9.36,1.54,1.54,4.77,1.64,4.96,1.98.09.15-.47,1.81-.27,2.74.74,3.41,2.87,4.08.42,8.17,2.18,1.13,1.34-1.92,2.2-3.52,2.96-5.47,9.74-3.51,11.12,2.32.48,2.01-1.26,3-.88,5.09s3.17,2.58,3.23,6.79c.06,4.79-2.07,5.11-2.75,7.65-.29,1.08,1.68,5.33-1.55,6.43-4.14,1.4-4.24-2.82-5.53-3.35-.23-.09-4.58-.85-4.83-.84-.87.01-1.1,3.45-3.51,2.05-1.65-1.99.01-2.75,1.38-3.99-1.14-.7-2.77-2.09-3.57-3.1-.01-1.26-.57-8.09-1.15-8.27-2.93,2.05-6.69-.93-9.28-.21-.95.26-.67,1.17-.81,1.26Z"/>
    <path class="cls-12" d="M758.97,350.76c.05,5.23-.18,9.88-6.52,10.98-5.19.9-4.96-2.3-9.4-3.43-3.48-7.64-1.75-10.57,4.68-14.78,2.37.95,4.98.88,7.44,2.25,2.37,1.32,2.39,3.22,3.8,4.99Z"/>
    <path class="cls-12" d="M1054.02,718.39l-2.48,2.3c-.02,2.43,2.84,3.26,2.99,3.76.1.33.07,5.61.15,6.69.05.69.87,2,.63,2.11l-4.9-.45c-.57,1.35-.58,2.84-1.3,4.15-.2.37-5.61,5.82-5.96,6.06-.97.66-4.61,1.34-5.88,1.31-8.12-.23-16.46-4.47-18.39-12.91-4.32-18.9,20.48-27.04,30.13-11.46l5.02-1.56Z"/>
    <path class="cls-12" d="M718.96,382.89c.81-6.07,3.49-9.16,8.96-11.74,6.27-2.95,11.93-1.72,17.49,2.42,8.61,6.41,8.21,20.52-1.11,26.18-12.07,7.33-27.16-3.15-25.34-16.86Z"/>
    <path class="cls-12" d="M1093.26,630.26c-.9,3.38-3.05,6.42-6.69,6.85-1,.12-3.55-.54-3.72-.44-1.04.59-.92,2.93-2.27,1.98-1.27-1.73-.93-2.93,1.11-2.98-.32-.82-1.46-1.24-1.7-2.03-.19-.61-1.06-8.05-1.07-9.08-.06-7.57,6.58-12.1,13.24-7.83,1.38.88,3.04,4.02,3.87,4.06,1.76-.56,1.43-2.75,2.42-3.75.82-.82,2.92-.3,3.92-1.2,1.66-1.49,1.99-6.07,5.89-5.75,5.68.47,3.2,4.74,3.86,7.53.32,1.37,3.23,2.62,4.16,5.06,5.01,13.14-11.35,21.91-20.04,11.88-1.19-1.37-.83-3.99-2.98-4.31Z"/>
    <path class="cls-12" d="M535.21,669.65c.86-6.6,8.42-13.38,15.26-12.82,14.84,1.21,21.27,17.53,10,27.6-10.12,9.04-27.11-.67-25.26-14.78Z"/>
    <path class="cls-12" d="M654.92,585.4c.35-.3,1.41-.23,2.07-.85,2.91-2.74,2.93-5.03,8.48-4.38,8.65,1.01,12.97,11.4,8.36,18.56,6.04.16,12.65,9.35,11.5,14.95-1.2,5.81-11.79,11.82-16.11,7.19-.37-.4-2.11-9.13-2.06-9.83.17-2.33,3.19-6.6,3.06-9.59-3.93,2.34-8.52,1.81-12.41-.46-4.54-2.65-7.18-11.9-2.88-15.59Z"/>
    <path class="cls-12" d="M585.09,605.32c1.25-5.22,6.93-10.4,12.27-11,12.93-1.46,22.03,12.4,14.64,23.7-4.2,6.41-9.86,4.77-16.32,6.3-6.89-5.07-12.87-9.41-10.58-19Z"/>
    <path class="cls-12" d="M834.98,555.09c1.03-.44,5.15-.85,6.28-.65,18.64,3.39,15.51,31.74-3.8,29.74-1.07.41-1.11,5.6-4.58,4.84-3.23-.71-1.87-3.07-2.41-4.72-1.3-4-4.73-14.63-4.15-18.43.55-3.64,5.31-9.35,8.66-10.78Z"/>
    <path class="cls-12" d="M897.59,573.73c7.42,1.17,13.58,6.79,10.72,14.66-.72,1.97-3.3,4.66-3.53,5.73-.44,1.99,2.85,6.21-2.49,7.57-5.53,1.4-5.4-4.02-6.13-4.37-1.47-.71-4.33.54-5.8-1.04-1.43-5.99-6.04-9.27-2.93-15.71,1.51-3.13,4.36-3.76,6.38-6.32-3.57-1.67-6.88-4.25-6.49-8.62,1.4-15.51,26.85-2.34,10.26,8.11Z"/>
    <path class="cls-12" d="M865.28,404.97c.49-3.26,1.09-4.29,3.19-6.76,4.54-5.34,8.02-3.89,14.05-4.62,2.56-.31,3.79-2.36,6.43-.36,3.42,2.59,1.25,4.87,1.42,7.87.22,3.9,1.49,6.06.25,10.3-4.39,15.03-27.89,10.6-25.35-6.42Z"/>
    <path class="cls-12" d="M652.24,455.99c.29-.09,1.12.8,1.87.7,2.4-.32,4.79-1.25,7.28-.6,2.26,2.98.85,5.83,1.21,8.85.09.8,1.07,1.72,1.22,2.77,2.04,14.6-17.54,22.06-24.77,9.48-4.34-7.55-.33-16.72,7.71-19.29,1.92-.61,3.89-1.38,5.49-1.9Z"/>
    <path class="cls-12" d="M654.3,420.95c1.43,2.21,1.18,6.27-.19,8.49,7.43,3.78,12.7,12.13,6.4,19.44-1.59,1.85-4.78,3.52-7.25,3.4-12.43-.6-16.28-12.08-8.68-20.92-11.54-6.84,3.34-20.29,9.72-10.41Z"/>
    <path class="cls-12" d="M945.64,630.36c-.91,6.05-4.96,5.7-5.17,6.3-.11.31,1.28,4.16-.01,5.46,3.98-2.2,5.58-.51,8.91,1.66.62,2-1.57,6.15-1.6,7.08-.02.86,2.82,1.83.99,4.28-2.73-1.96-6.98-1.05-9.23-3.5-1.57-1.71-1.61-6.42-.11-8.33-7.37,3.89-12.16-12.77-3.18-10.27-.43-3.42,2.76-7.89,6.44-5.87,1.5.82,1.89,2.28,2.96,3.19.55-3.65-3.83-5.39-3.59-10.33.16-3.28,3.37-8.65,6.48-9.6.54-.17,1.4.56,2.07.48,2.76-.36,5.2-.97,8.12-.48l-1.13-4.24c2.39-3.1,4.6-3.21,8.11-3.07,1.8.07,1.3,1.5,3.54-.83,3.94-.38,3.39,5.68-.76,4.11,1.48,4.18-2.66,3.9-3.98,5.54-1.35,1.69.42,3.75-.33,5.71,3.32-.74,7.61,1.62,7.25,5.28-.51,5.26-9.72,3.63-12.92,4.88-.69.27-4.36,1.75-4.55,1.92-.62.55-.49,2.69-2,2.96-2.28.1-1.24-1.62-1.39-1.78-.28-.29-2.05,1.88-4.92-.55Z"/>
    <path class="cls-12" d="M747.4,716.07c-4.3-7.57,2.44-17.79,11.5-16.36,16.99,2.68,14.04,26.61-3.12,23.14-4.25-.86-6.34-3.17-8.38-6.78Z"/>
    <path class="cls-12" d="M469.24,373.19c-8.18-15.1,18.41-23.78,22.1-8.18,3.27,13.84-15.26,20.81-22.1,8.18Z"/>
    <path class="cls-12" d="M710.09,548.58c2.57-1.61,6.9-.05,8.2,2.65.69,1.44-.04,3.24,1.03,4.59,4.25-3.55,9.62-3.11,12.55,1.83.64,1.08.66,3.01,1.17,3.65,1.47,1.83,4.37,1.55,3.37,6.12,3.47-.3,4.73,1.44,7.13,2.43,2.43,1.01,6.73,1.05,6.87,4.62.21,5.4-3.15,3.6-5.77,4.51-1.29.45-2.1,2.08-3.18,2.45-5.04,1.73-11.81-3.55-10-9.01.49-1.47,2.09-1.91,2.31-3.44-1.49.65-2.75-1.35-3.31-1.25-.77.14-2.22,1.59-3.48,1.99-6.75,2.15-11.5-3.55-9.73-10.05-2.67.89-5.08-1.87-7.09-1.72-.97.07-1.33,1.34-2.1,1.6-4.51,1.5-8.53-1.51-7.95-6.24.67-5.54,6.53-1.79,7.7-2.17,1.01-.33,1.46-2.03,2.29-2.55Z"/>
    <path class="cls-12" d="M1014.2,644.13l4.95,3.3c.23,7.44-4.31,13.6-12.1,9.33-3.7-2.03-2.11-5.59-3.27-7.9-.58-1.16-2.14-1.79-2.87-2.93-1.77-2.74-4.14-8.64-2.33-11.7.54-.92,5.4-4.34,6.64-4.47,2.33-.25,6.54,1.47,8.4,2.85,2.58,1.91,1.59,8.92.58,11.53Z"/>
    <path class="cls-12" d="M973.17,432.19c.39.75,6.17,3.62,7.57,3.9l.44.93c-1.67,1.78-.48,3.75-.91,5.23-1.89,6.49-10.64,8.61-15.01,3.04-2.17-2.76-1.21-5.72-2.06-7.47-.97-1.98-6.12-1.89-5.46-8.35.81-7.77,9.7-10.1,14.02-3.68,1.58,2.36.87,5.34,1.41,6.4Z"/>
    <path class="cls-12" d="M1018.71,538.74c.49-.34,1.7-.13,2.06-.83.57-1.1-.08-4.48,1.56-7.23.6-1,5.86-4.81,6.82-5.1,3.01-.9,7.33.96,9.64,2.91,9.07,7.67-1.07,23.39-12.52,17.27-1.46-.78-3.64-3.42-4.64-3.63-.34-.07-.61,1-.81,1.06-2.63.71-4.37-2.89-2.11-4.45Z"/>
    <path class="cls-12" d="M895.07,472.98c0-.39,1.9-6.68,2.25-7.49,2.99-6.91,8.36-7.88,14.97-5,11.63,5.07,4.85,23.18-9.09,18.75-1.91-.61-8.08-4.16-8.13-6.27Z"/>
    <path class="cls-12" d="M805.31,408.4c.94-1.56-1.06-2-1.26-2.65-.06-.2-.52-3.94-.51-4.15.11-2.71,3.59-7.05,6.34-7.48,11.36-1.79,11.69,9.06,5.35,15.64l-7.86-.83c-1.11,1.79.85,3.02.92,4.38.18,3.41-2.8,7.57-6.47,7.24-13.52-1.22-7.27-18.87,3.5-12.14Z"/>
    <path class="cls-12" d="M826.33,494.68c.24-8.23,7.79-13.94,15.44-9.74,8.52,4.68,6.22,17.68-3.59,19.38-5.58.97-12.02-3.87-11.85-9.64Z"/>
    <path class="cls-12" d="M822.78,636.05c-.68-14.82,20.4-9.71,12.82,2.59-2.53,4.11-7.77,1.93-8.8,2.76-.96.78.49,5.95-5.22,7.76-13.14,4.15-12.93-19.07,1.2-13.11Z"/>
    <path class="cls-12" d="M931.87,780.42c-.53,4.04,2.3,7.56,1.91,11.37-.12,1.15-1.36,5.17-1.91,5.75-.2.21-5.02,2.23-5.31,2.26-3.56.32-7.39-2.5-11.08-2.99-1.39-1.38.22-3.09.17-4.16-.19-4.44-2.01-6.25,2.22-10.41,4.33-4.26,7.63.71,11.39-3.32l2.61,1.5Z"/>
    <path class="cls-12" d="M844.91,746.6c1.87-.62,6.1.37,7.61,1.83,3.73,3.59-.57,8.1-.17,9.33.59,1.81,5.48,3.66,4.68,8.89-1.93,12.63-24.18,2.58-13.05-8.45-4.08-2.11-2.53-10.44.94-11.59Z"/>
    <path class="cls-12" d="M678.02,479.86c1.33.63-.53,2.71-.56,4.08-.02.78.67,7.07.83,8.19.13.88,1.25,1.09,1.23,1.7-.11,4.64-3.84,7.73-8.34,7.22-1.21-.14-2.13-1.04-3.43-.99s-2.42,1.51-3.85.9c.37-1.72,1.47-3.49.19-5.02-.35-.09-2.85,2.3-3.59,1.25-1.03-1.47,1.78-1.14,1.83-1.35.62-2.21-1.96-3.74-1.92-4.24.24-2.53,5.09-8.04,2.82-10.8l.85-.53c2.4.59,5.05.28,7.46.82,3.1.69,4.3,3.65,6.47-1.23Z"/>
    <path class="cls-12" d="M1071.85,664.96c.8,1.27.35,5.25,1.72,6.8.81-2.01-.06-4.72,2.35-6l2.67,1.58c-1.77,4.28,1.39,3.46,2.04,6.6-.91-.09-2.92,1.81-3.09,1.78-.94-.18-1.82-1.51-2.87-1.19-1.26.39-4.1,5.13-7.86,5.36-11.72.72-16.05-20.19-2.19-18.35,1.93.26,6.22,1.81,7.24,3.43Z"/>
    <path class="cls-12" d="M866.4,588.52c2.23-8.11,15.87-7.22,18.4,1.19,1.56,5.18-1.43,7.55-4.43,11.14-1.64.29-4.4,4.78-5.66,4.12-.45-.24-.92-2.01-1.52-2.58-4.32-4.1-8.73-6.81-6.79-13.87Z"/>
    <path class="cls-12" d="M964.58,659.37c3.1-2.09,9.55,2.77,5.48,6.3l4.09,3.15c2.1.9,5.01-2.69,6.86,1.11-1.42,3.57-1.13,7.92-2.6,11.3-2.49,5.7-10.82,5.2-13.14-.83-1.49-3.87.06-5.29.01-8.7-.04-2.59-3.54-10.43-.71-12.33Z"/>
    <path class="cls-12" d="M1111.18,584.88c.82.89,1.96,5.95,1.81,7.35-.24,2.24-1.39,3.2-1.66,4.52-.27,1.35,1.66,3.63-.31,5.36-2.55,2.24-4.36-1.54-6.04-2.3-2.82-1.27-4.76.19-7.51-3.05-4.79-5.64-.07-14.74,7.08-14.36,1.58.08,5.66,1.42,6.63,2.47Z"/>
    <path class="cls-12" d="M1123.08,647.32c.49.56,7.14-3.21,11.82,1.96,7.26,8.01-5.7,19.99-13.45,11.45-3.93-4.33-.71-11.23-1.06-11.85-.15-.27-2.86-.17-1.99-3.15.75-2.59,5.52-1.98,4.68,1.59Z"/>
    <path class="cls-12" d="M913.61,605.64c3.23-1.92,6.63,2.47,4.97,5.46,6.08-.46,3.61,2.98,3.66,6.21.04,2.17.96,3.07.13,5.54-3.56,10.59-19.52,4.68-13.71-6.5.91-1.75,3.1-2.12,3.71-3.61.89-2.17-1.71-5.35,1.23-7.09Z"/>
    <path class="cls-12" d="M1133.81,813.85c3.36-1.99,8.01.62,10.47,3.03,2.23,2.19,2.54,6.08,3.54,8.91.61,1.73,2.67,2.76,1.82,4.98-6.44,1.09-11.14,1.9-16.08-3.49-3.22-3.51-4.32-10.72.24-13.43Z"/>
    <path class="cls-12" d="M1073.53,511.08c1.1,2.22,3.31,3.26,2.85,6.17-.6,3.73-3.44,6.01-7.18,5.09l-.25,1.01c2.98,4,1.02,6.1-1.76,9.26l-6.92-1.79c-2.32-2.59-2.69-6.8.08-9.27,1.7-1.52,3.29.3,3.26-3.7-.02-1.89-1.34-2.25.31-4.89,2.21-3.54,6.27-2.87,9.61-1.87-2.09-4.22-.61-4.31.73-8.53l9.03,7.09c3.01,2.16.42,6.55-2.53,5.91-1.64-.35-3.47-3.34-7.23-4.47Z"/>
    <path class="cls-12" d="M726.75,599.77c.97,1.42,6.78,1.43,5.89,7.86-3.42,3.49-10.37,3.06-9.48-2.84-7.11,1.3-13.87-3.43-10.27-10.99.63-1.32,6.61-3.48,8.12-3.02,1.32.4,4.13,2.2,4.93,3.4,1.35,2.02.51,5.13.82,5.59Z"/>
    <path class="cls-12" d="M946.47,333.94c-2.45-7.51,7.43-3.99,4.14-.38-1.23,1.35-3.08-.05-3.62,1.24,10.13,7.08-2.72,20.92-10.66,11.83-6.31-7.22,1.89-16.85,10.14-12.68Z"/>
    <path class="cls-12" d="M920.68,570.69c1-.41,1.89-2.89,3.88-1.68,1.02,4.98,6.08,7.74,3.37,13.4-5.57,11.63-23.54.12-13.76-9.49,2.45-2.41,4.63-1.45,6.5-2.22Z"/>
    <path class="cls-12" d="M702.75,666.69c1.09,2.81-.37,5.94-3.62,5.26-2.7-.57-5.18-.46-7.06-.92-3.11-.76-3.81-3.49-4.88-4-1.53-.72-7.59.35-6.21-5.03,1.14-4.46,5.31-2.01,7.14-2.54,1.75-.5,3.38-3.9,7.63-2.82,4.88,1.24,4.53,5.12,5.61,8.31.29.86,1.23,1.3,1.4,1.73Z"/>
    <path class="cls-12" d="M811.96,612.93c4.04-.33,6.52.91,9.2,3.81l1.21-3.35c3.77-3.34,2.56,7.32,1.84,8.71-.35.68-1.83.37-2.49.89-.95.76-1.2,2.21-2.2,3.17-4.69,4.47-12.96.6-12.96-5.7,0-1.82,1.05-2.72,1.24-3.89.16-.96-.62-2.02-.36-2.99.08-.3,4.09-4.26,4.39-4.28,2.64-.14,2.39,2.64.13,3.63Z"/>
    <path class="cls-12" d="M1076.76,778.21c2.31-1.1,6.29-.81,6.84,2.28.68,3.81-5.43,6.01-4.99,6.69,1.74.06,4.22,3.51,3.85,4.99-.15.57-5.1,4.31-5.93,4.68-7.98,3.55-14.64-8.72-5.41-13.03.93-.43,2.54-.16,3.14-.63.58-.45-.34-3.64,2.51-4.99Z"/>
    <path class="cls-12" d="M887.68,507.22c-1.32-6.66,8.79-6.92,5.69.34-.36.84-1.48,1.36-1.63,1.81-.58,1.77,3.15,5.79-1.11,10.18-9.82,10.11-21.28-13.76-2.96-12.33Z"/>
    <path class="cls-12" d="M968.98,578.89c3.16,2.4,6.41.81,9.73,3.78,5.4,4.83,1.66,11.87-3.62,14.91-.76.18-4.75-1.49-5.49-1.98-1.84-1.23-1.2-4.09-4.79-3.24,2.17-1.91-.06-3.54.72-5.99.64-2,3.82-4.22,3.46-7.48Z"/>
    <path class="cls-12" d="M923.2,442.15c13.1-1.36,9.01,18.24-1.41,13.3-6.72-3.19-2.29-8.4-3.18-10.87-.49-1.34-6.02-3.34-2.08-7.31,3.85-3.88,7.82.47,6.67,4.88Z"/>
    <path class="cls-12" d="M811.41,538.85c.19-7.8,9.3-11.27,13.78-4.7,5.48,8.05-3.36,16.04-10.86,10.5-1.26-.93-2.95-4.2-2.91-5.8Z"/>
    <path class="cls-12" d="M1093.9,816.34c.59.63,2.05.71,2.85,1.49,4.82,4.7,4.99,9.51,4.86,15.94l-2.55-1.38-.53,2.05c-1.35-.11-1.74-1.49-2.85-1.98-.67-.3-1.84.14-2.62-.26-1.04-.54-3.84-7.88-3.76-9.37.1-1.88,1.16-3.75,1.18-5.21,0-.56-3.57-3.14-2.17-5.75,3.26-2.46,4.83,3.66,5.58,4.46Z"/>
    <path class="cls-12" d="M942.17,456.64c.43-11.83,18.86-9.03,15.63.31-3.1,8.97-15.9,7.18-15.63-.31Z"/>
    <path class="cls-12" d="M834.26,591.95c1.62-6.29,15.11-2.52,14.25,5.43-.88,8.16-12.69,8.33-14.38,1.54-.26-1.06-.15-5.92.13-6.97Z"/>
    <path class="cls-12" d="M1033.23,797.6c.53-10.69,15.19-7.84,15-.21-.29,11.37-15.44,9.11-15,.21Z"/>
    <path class="cls-12" d="M753.65,406.32c.34-12.32,16.24-8.2,14.83,1.1-1.38,9.06-15.05,6.94-14.83-1.1Z"/>
    <path class="cls-12" d="M484.07,405.78c1.62-10.22,18.26-6.29,13.87,4.26-3.42,8.23-15.16,3.91-13.87-4.26Z"/>
    <path class="cls-12" d="M543.91,735.13c1.02-11.27,16.75-7.17,14.52,2.48-1.92,8.31-15.29,6.06-14.52-2.48Z"/>
    <path class="cls-12" d="M825,670.06c-.31-1.67-2.43-1.54-2.85-3.8-1.47-7.97,8.37-13.16,13.01-5.98,4.19,6.48-2.15,12.5-8.97,10.83,2.11,4.89,3.12,7.49-2.01,10.77-10.2,6.51-14.12-16.18.82-11.81Z"/>
    <path class="cls-12" d="M1043.26,666.05c.77-.2,1.49-2.66,4.78-2.25,6.52.82,6.09,8.88.12,9.58l-.73,5.02c-2.4,2.25-5.01.6-5.8-2.23l2.37-3.97c-1.73-.59-2.44,1.22-4.3,1.08-5.5-.42-4.06-7.68,0-7.85,1.2-.05,2.63.85,3.54.61Z"/>
    <path class="cls-12" d="M776.17,632.67c-.67.49-3.9,1.22-4.85,1.12-10.69-1.07-7.04-17.74,3.46-13.62,4.67,1.83,4.88,9.92,1.39,12.5Z"/>
    <path class="cls-12" d="M1014.04,786.68c-2.33-2.06-4.82.11-6.8-.35-8.45-1.95-6.9-18.53,4.1-13.38,5.98,2.8,2.75,8.87,2.7,13.73Z"/>
    <path class="cls-12" d="M835.84,433.5c-.27.23-6.3.69-6.99.54-4.66-.98-4.45-9.53-1.52-12.43,2.29-2.27,8.12-2.34,10.09.47.3.43,1.29,6.27,1.14,6.82-.07.26-2.52,4.43-2.73,4.6Z"/>
    <path class="cls-12" d="M838.02,688.12c-.02-9.77,12.46-10.06,13.91-1.89,1.84,10.39-13.9,10.11-13.91,1.89Z"/>
    <path class="cls-12" d="M883.46,703.38l2.44-2.38c3.64,3.73,5.32,2.71,10,2.54,5.78,5.78.56,16.46-7.26,11.3-3.42-2.26-2.66-8.01-5.18-11.45Z"/>
    <path class="cls-12" d="M1275.34,504.72c6.93-3.63,15.77,4.59,8.3,10.57-7.21,5.76-17.98-5.5-8.3-10.57Z"/>
    <path class="cls-12" d="M768.6,701c.4-2.64,3.28-5.88,6.15-5.81,7.05.19,7.73,4.86,7.51,10.76-4.7,4.84-14.85,2.79-13.66-4.95Z"/>
    <path class="cls-12" d="M790.02,627.68c.24-18.96,19.46-1.43,7.91,3.1-3.62,1.42-5.9-1.34-6.2-1.21-.16.07-.78,1.9-2.19,2.68-7.53,4.18-7.45-6.69.48-4.58Z"/>
    <path class="cls-12" d="M726.54,532.38c.57-.47,2.19.14,2.71-.32.66-.58.43-2.83,2.06-2.92,3.58,1.85,7.52,1.81,8.69,6.37,1.19,4.64-4.59,9.22-8.96,7.04-2.39-1.19-7.65-7.53-4.5-10.17Z"/>
    <path class="cls-12" d="M1179.26,735.31c.27-9.2,14.06-4.66,14.13,3.22.08,8.64-14.34,4.04-14.13-3.22Z"/>
    <path class="cls-12" d="M1086.87,695.72c.21-7.64,3.11-10.01,8.98-4.75,8.12,7.28-.85,17.37-6.81,9.83-.92-1.17-2.21-3.57-2.17-5.08Z"/>
    <path class="cls-12" d="M1056.61,731.61c.3-10.71,14.78-7.19,13.26,1.45-1.34,7.62-13.48,6.22-13.26-1.45Z"/>
    <path class="cls-12" d="M1098.4,505.26c.25-5.16,3.63-4.47,5.4-6.12,1.93-1.8,2.02-5.67,6.44-2.02,1.54,1.99-.59,3.22-.69,4.53-.15,1.93,3.46,3.69-.71,7.93-3.69,3.75-10.65.31-10.43-4.33Z"/>
    <path class="cls-12" d="M965.36,799.93c1.92,3.64-.06,8.73-4.35,9.2-2.64.28-7.58-3.54-8-6.21-1.42-9.1,8.89-9.54,12.35-2.98Z"/>
    <path class="cls-12" d="M949.15,691.08c.61-7.2,18.54-7.25,11.86,3.77-.39.64-6.06,4.95-6.92,5-1.51.08-2.79-.71-3.47-2.08-.15-.31-1.5-6.35-1.47-6.69Z"/>
    <path class="cls-12" d="M907.92,707.41c.99-8.15,12.5-8.64,12.1-.19-.2,4.21-2.65,6.21-5.42,9-3.16-2.56-7.29-3.84-6.68-8.81Z"/>
    <path class="cls-12" d="M1043.71,697.11c.1-.76.85-1.56,1.02-2.46.63-3.36.02-8.49,5.88-6.99,4.93,1.26,3.06,4.45,2.97,7.54-.03,1.04.62,2.12.46,3.26-.9,6.41-11.3,6.26-10.32-1.35Z"/>
    <path class="cls-12" d="M842.38,428.98c.36-13.68,19.13-4.68,10.77,3.93-3.83,3.94-10.91,1.41-10.77-3.93Z"/>
    <path class="cls-12" d="M911.2,663.2c.62-6.43,16.82-2.84,14.34,5.17-2.55,8.27-14.76-.89-14.34-5.17Z"/>
    <path class="cls-12" d="M971.87,536.9c.92-.51,8.27-.37,9.16.33,5.49,4.28.18,15.7-8.69,9.25-2.51-1.83-2.79-8.28-.48-9.58Z"/>
    <path class="cls-12" d="M857.99,564.57c2.73-1.75,5.21.03,6.65-.16,1.24-.17,3.75-3.6,6.22-.03,3.13,4.53-2.65,4.28-3.49,5.03-2.23,1.99-1.48,5.24-6.52,4.42-5.73-.93-7.54-6.27-2.86-9.26Z"/>
    <path class="cls-12" d="M862.65,776.59c.32-12.25,16.15-7.36,10.6,2.68-2.72,4.93-10.75,2.84-10.6-2.68Z"/>
    <path class="cls-12" d="M1013.88,561.82c1.47-.84.27-4.11,2.41-4.24,2.92-.18,2.43,2.22,3.28,3.46.34.5,1.5.63,1.91,1.45,1.08,2.15-.59,7.8-2.87,8.78-3.23,1.38-11.71-4.24-8.79-7.93,1.35-1.71,3.01-.91,4.07-1.52Z"/>
    <path class="cls-12" d="M996.03,584.56c-.4-10.02,13.21-7.43,11.92,1.08-1.04,6.88-11.68,4.87-11.92-1.08Z"/>
    <path class="cls-12" d="M916.31,595.06c.45.76,1.9,1.1,2.49,2.29,1.18,2.37.03,6.93-3.12,6.47-3.83-.56-2.47-3.73-2.96-4.3-.58-.69-3.33-.33-4.9-2.02-4.34-4.67,3.67-11.44,7.67-5.71.76,1.08.36,2.52.81,3.28Z"/>
    <path class="cls-12" d="M988.54,468.35c2.98-1.17,3.77,3.46,1.46,5.39,7.38,2.76.44,13.94-5.39,8.72-7.9-7.08,3.4-9.57,3.56-10.26.05-.21-1.72-3.03.36-3.85Z"/>
    <path class="cls-12" d="M753.79,588.08c-.03-4.14,5.66-10.74,8.97-5.9,7.53,11.02-8.89,15.25-8.97,5.9Z"/>
    <path class="cls-12" d="M1005.51,499c.24-7.62,9.8-7.19,10.28-.29.7,10.28-10.49,7.25-10.28.29Z"/>
    <path class="cls-12" d="M796.71,463.25c.86-2.54,5.91-3.49,8.25-4,9.41,14.35-11.81,14.54-8.25,4Z"/>
    <path class="cls-12" d="M505.6,422.52c-5.46,4.1-12.9-4.95-6.45-9.42,6.04-4.18,12.07,5.2,6.45,9.42Z"/>
    <path class="cls-12" d="M923.88,840.7c-5.77-.09-8.71-12.8-3.58-14.37,6.39-1.95,7.49,10.87,3.58,14.37Z"/>
    <path class="cls-12" d="M528.13,439.6c2.56,3.74-2.04,9.95-6.17,5.1-.7-.82-.61-2.03-1.01-2.56-.76-1-1.99-1.35-2.75-2.73-1.61-2.92,1.11-5.68,4.11-5.89,3.08.47,2.87,3.05,3.93,4.63.54.81,1.59,1,1.9,1.45Z"/>
    <path class="cls-12" d="M1100.26,680.21c1.02-6.32,8.7-2.39,11.18.91-1.4,2.65-1.8,6.32-5.63,6.03-3.27-.25-6.08-3.7-5.55-6.94Z"/>
    <path class="cls-12" d="M809.4,797.14c.28-8.34,10.36-5.86,9.93-.03-.52,6.97-10.11,5.5-9.93.03Z"/>
    <path class="cls-12" d="M985.6,735.8l-6.95,1.53c-8.96-12.47,5.93-15.54,6.95-1.53Z"/>
    <path class="cls-12" d="M899.1,764.81c.25-10.32,10.55-4.48,8.74,2.4-1.32,5.01-8.87,2.96-8.74-2.4Z"/>
    <path class="cls-12" d="M835.94,443.49c1.15-8.17,13.85-4.77,8.8,3.56-2.18,3.59-9.4.68-8.8-3.56Z"/>
    <path class="cls-12" d="M911.11,692.29c1.25-6.02,12.16-3.79,9.03,3.85-2.18,5.34-10.23,1.91-9.03-3.85Z"/>
    <path class="cls-12" d="M1039.88,758.62c4.11,7.48-10.53,10.3-8.91,1.49.94-5.14,6.69-5.51,8.91-1.49Z"/>
    <path class="cls-12" d="M1130.78,550.97c-4.51,1.56-10.64-2.93-7.01-7.42,4.37-5.42,12.62,2.29,7.01,7.42Z"/>
    <path class="cls-12" d="M643.11,663.24c1.81-8.29,14.45-1.38,7.63,4.47-3.33,2.86-8.49-.53-7.63-4.47Z"/>
    <path class="cls-12" d="M799.92,506.84c-.12-2.95,2.96-4.84,5.41-3.81,2,.85,7.15,9.23,2.12,10.08-1.57.26-7.46-4.58-7.53-6.27Z"/>
    <path class="cls-12" d="M1089.33,654.88c2.95-1.73,7.71,2.7,7.61,5.92-.31,10.19-13.68-2.36-7.61-5.92Z"/>
    <path class="cls-12" d="M800.16,555.93c-4.6,2.56-9.82-4.06-5.08-8.07,4.7-3.97,10.99,4.78,5.08,8.07Z"/>
    <path class="cls-12" d="M857.85,468.16c-4.94-7.63,12.66-10.09,7.71.32-1.58,3.33-6.17,2.07-7.71-.32Z"/>
    <path class="cls-12" d="M715.41,585.88c-2.67,1.95-7.77-.23-7.58-3.57.57-10.1,14.24-1.31,7.58,3.57Z"/>
    <path class="cls-12" d="M632.19,668.26c.39-6.37,9.58-4.54,9.08.47-.6,6.02-9.41,4.77-9.08-.47Z"/>
    <path class="cls-12" d="M756.86,741.17c-2.93-4.64,3.67-9.94,7.02-5.61,4.02,5.2-3.81,10.69-7.02,5.61Z"/>
    <path class="cls-12" d="M1100.91,602.56c.79.78-.14,4.45,3.3,4.68,1.46,4.18-1.68,2.01-3.59,1.91-.92-.05-1.8.68-3.16.44-8.18-1.42-1.07-11.5,3.46-7.03Z"/>
    <path class="cls-12" d="M1113.57,760.67c1.66,4.74-4.32,10.41-7.73,5.45-2.96-4.3,4.21-9.97,7.73-5.45Z"/>
    <path class="cls-12" d="M921.89,549.28c-3.8.29-8.57-3.46-5.69-7.11,4.22-5.35,12,2.62,5.69,7.11Z"/>
    <path class="cls-12" d="M801.7,429.07c-2.8-3.76,1.89-9.3,6.34-5.77,4.47,3.55-2.35,11.14-6.34,5.77Z"/>
    <path class="cls-12" d="M814.91,560.8c3.06,5.51-7.1,8.81-8.15,2.8-.89-5.13,5.75-7.13,8.15-2.8Z"/>
    <path class="cls-12" d="M874.43,468.41c.2-3.56,4.37-3.25,6.63-5.02,6.26,9.61-7.08,12.94-6.63,5.02Z"/>
    <path class="cls-12" d="M618.36,665.46c.46-6.26,8.96-4.43,8.4.91-.54,5.15-8.81,4.58-8.4-.91Z"/>
    <path class="cls-12" d="M784.44,691.52c-8.24,1.22-8.71-5.05-2.89-9.29,2.55,2.65,6.63,5.94,2.89,9.29Z"/>
    <path class="cls-12" d="M733.6,513.15c-.07-6.14,11.67-5.42,7.94,2.03-1.98,3.96-7.9,1.18-7.94-2.03Z"/>
    <path class="cls-12" d="M704.86,659.94c-.21-5.25,6.22-6.57,8.07-2.46,2.56,5.7-7.82,8.75-8.07,2.46Z"/>
    <path class="cls-12" d="M951.26,512.03c.49-6.55,9.49-3.61,8.17,1.54-1.17,4.56-8.55,3.61-8.17-1.54Z"/>
    <path class="cls-12" d="M725.09,454.24c3.79,6.36-9.29,9.08-7.44,1.17.99-4.22,5.89-3.77,7.44-1.17Z"/>
    <path class="cls-12" d="M940.3,771.72c4.27-1.64,5.12,5.46-.53,4l-.49,3.53c-1.55,1.32-6.16-1.45-5.63-3.99.81-3.85,3.4-1.83,5.37-2.31.52-.12.89-1.08,1.27-1.23Z"/>
    <path class="cls-12" d="M889.8,539.26c-.39-7.59,11.24-4.63,7.26,1.85-1.77,2.88-7.1,1.16-7.26-1.85Z"/>
    <path class="cls-12" d="M1028.89,675c4.44-2.39,11.97-1.16,7.9,5.06-2.49,3.81-6.39-1.8-8.44-3.2l.54-1.86Z"/>
    <path class="cls-12" d="M999.62,621.78c.57-.32,4.6-.38,4.96-.02,2.85,5.38-1.6,9.94-6.44,5.84-.82-1.39.1-5.04,1.48-5.82Z"/>
    <path class="cls-12" d="M1069.7,637.51c.29-4.98,8.08-4.38,7.7.72-.43,5.93-7.98,3.92-7.7-.72Z"/>
    <path class="cls-12" d="M706.33,467.95c.13-.02,1.64-2.14,2.5-.58.91,1.64-1.87,1.86-1.9,2-.09.48.33,1.43.13,2.28-1.63,6.78-11.08.76-6.07-3.33,2.27-1.85,3.3-.07,5.34-.36Z"/>
    <path class="cls-12" d="M541.35,460.71c-2.05-4.92,6.7-7.71,7.76-1.94.85,4.58-6.04,6.07-7.76,1.94Z"/>
    <path class="cls-12" d="M591.27,665.07c2.12,3.6-3.04,8.91-6.54,4.75-3.3-3.91,3.89-9.24,6.54-4.75Z"/>
    <path class="cls-12" d="M822.41,521.2c3.11-.81,6.45,1.49,6.38,4.78-1.43,3.67-4.4,3.95-7.14,1.29l.76-6.07Z"/>
    <path class="cls-12" d="M968.22,775.82c1.71.06,5.56,1.16,6.07,2.88.15,9.44-11.57,3.6-6.07-2.88Z"/>
    <path class="cls-12" d="M1054.21,592.88c-.24-5.34,8.05-5.33,7.74.12-.27,4.78-7.56,3.93-7.74-.12Z"/>
    <path class="cls-12" d="M787.7,805.39c4.1-2.41,8.72,4.41,4.29,6.75s-8.32-4.38-4.29-6.75Z"/>
    <path class="cls-12" d="M829.93,465.03c3.51,5.74-10.59,7.72-7.06-.13,1.36-3.02,5.65-2.18,7.06.13Z"/>
    <path class="cls-12" d="M640.94,360.82c-.29-6.94,9.57-5.11,6.84,1.13-1.39,3.18-6.72,1.8-6.84-1.13Z"/>
    <path class="cls-12" d="M511.92,429.25c-3.45,2.06-8.18-3.18-4.08-6.38,4.11-3.21,8.38,3.81,4.08,6.38Z"/>
    <path class="cls-12" d="M603.73,631.92c.8-.5,2.74-.38,2.5.8-.25,1.26-6.57,8.61-7.96,9.99-.64.64-1.42,2.05-2.57,1.5-1.23-1.46-.56-1.47.15-2.64,1.3-2.15,5.97-8.46,7.88-9.65Z"/>
    <path class="cls-12" d="M966.62,514.55c-.58-6.81,9.77-5.2,6.89,1.14-1.32,2.9-6.66,1.52-6.89-1.14Z"/>
    <path class="cls-12" d="M1050.08,826.94c-8.35,3.81-10.6-11.51,2.48-3.16,1.07.68-2.19,3.03-2.48,3.16Z"/>
    <path class="cls-12" d="M688.5,392.56c1.91,3.14-3.04,8.08-6.36,4.07-3.45-4.16,3.8-8.28,6.36-4.07Z"/>
    <path class="cls-12" d="M982.52,602.69c-2.79-.93-4.52,1.82-6.97,2.49l-2.36-1.29c-2.61-7.15,4.34-3.07,8.35-4.36,1.54.39,1.54,1.89.98,3.16Z"/>
    <path class="cls-12" d="M1043.94,744.34c4.15-2.46,8.16,4.59,3.65,6.64-4.3,1.95-7.39-4.42-3.65-6.64Z"/>
    <path class="cls-12" d="M969.89,348.14c-.26-6.19,7.53-5.22,7.03-.08-.44,4.51-6.89,3.43-7.03.08Z"/>
    <path class="cls-12" d="M790.52,605.1c-2.74,1.62-7.24-1.1-4.97-4.93,3.14-5.31,9.71,2.14,4.97,4.93Z"/>
    <path class="cls-12" d="M1030.79,508.34c3.37-2.04,7.83,4.05,3.82,6.43-3.79,2.25-8.16-3.81-3.82-6.43Z"/>
    <path class="cls-12" d="M957.95,639.87c-3.75-6.42,7.64-8.91,6.12-2.28-.68,2.95-4.69,4.73-6.12,2.28Z"/>
    <path class="cls-12" d="M1017.58,611.14c-.25-5.83,6.93-5.45,6.99-.63.06,3.95-6.82,4.68-6.99.63Z"/>
    <path class="cls-12" d="M1185.42,722.19c3.75-.37,7.29,3.52,6.06,7.28-5.37.81-7.98-2.16-6.06-7.28Z"/>
    <path class="cls-12" d="M830.15,513.72c.68-.21,1.98.63,2.86.48,1.29-.22,6.09-2.95,5.38,1.17-.6,3.49-3.14,1.7-4.19,1.91-1.79.35-3.15,3.25-5.11-.08-.43-.87.38-3.27,1.07-3.48Z"/>
    <path class="cls-12" d="M1067.76,719.09c9.7-1.34,6.15,11.11-1.15,4.57l1.15-4.57Z"/>
    <path class="cls-12" d="M784.6,381.3l-3.84,3.76-5.05-1.66-.15-2.61c3.5-3.95,5.48.53,9.05.52Z"/>
    <path class="cls-12" d="M1033.42,454.38c.58,1.55-6.32,9.23-7.99,4.45-.94-3.02,6.68-7.97,7.99-4.45Z"/>
    <path class="cls-12" d="M1027.21,522.35c-2.3-3.42,3.2-8.4,5.89-3.79,2.38,4.08-3.88,6.78-5.89,3.79Z"/>
    <path class="cls-12" d="M829.41,451.15c-.47-5.45,6.35-5.29,6.54-.96.21,5.03-6.27,4.06-6.54.96Z"/>
    <path class="cls-12" d="M702.86,575.44c-3.88,2.27-7.21-4.14-3.78-5.88,4.17-2.12,7.19,3.89,3.78,5.88Z"/>
    <path class="cls-12" d="M559.05,604.53c-.22-5.83,8.33-4.25,6.19.96-1.25,3.05-6.08,1.98-6.19-.96Z"/>
    <path class="cls-12" d="M1018.38,430.29c1.23,1.99-2.33,7.34-4.58,5.9-3.29-4.21,1.43-11.01,4.58-5.9Z"/>
    <path class="cls-12" d="M779.49,774.94c5.75-3.36,7.38,9.06.19,5.7-2.08-.97-2.17-4.54-.19-5.7Z"/>
    <path class="cls-12" d="M983.58,469.75c-2.49,1.45-6.05-.81-4.49-4.06,3.04-6.36,8.63,1.64,4.49,4.06Z"/>
    <path class="cls-12" d="M773.17,568.04c-7.97-2.32-4.4-5.9,1.64-7.47,1.37.31-.64,6.75-1.64,7.47Z"/>
    <path class="cls-12" d="M1069.41,621.52c-.42-5.75,6.6-5.25,6.59-.97,0,3.97-6.39,3.66-6.59.97Z"/>
    <path class="cls-12" d="M1075.95,552.26c.59-.42.48-2.36,1.95-3.06,4.81-2.29,4.91,7.29-1.34,4.1l-.54,2.33c-1.26,1.04-4.21-.91-2.95-2.86.58-.89,2.45-.2,2.88-.51Z"/>
    <path class="cls-12" d="M995.52,524.05c3.25-1.95,6.84,3.08,3.57,5.52-3.47,2.59-7.52-3.15-3.57-5.52Z"/>
    <path class="cls-12" d="M760.98,360l4.19,3.75c2.05,5.59-10.48,5.28-4.19-3.75Z"/>
    <path class="cls-12" d="M701.24,600.18c.68-4.32,9.12-2.54,5.54,2.86-1.7,2.56-6.02.19-5.54-2.86Z"/>
    <path class="cls-12" d="M739.76,483.51c.68-4.32,9.12-2.54,5.54,2.86-1.7,2.56-6.02.19-5.54-2.86Z"/>
    <path class="cls-12" d="M792.86,371.78c-.57-1.13,7.12-12.67,7.91-12.5,1.13.25.45,2.05,0,2.9-1.29,2.45-3.45,6.88-5.33,8.59-.82.75-1.28,1.64-2.58,1.01Z"/>
    <path class="cls-12" d="M992.83,590.79c.08-.85-.64-1.85.14-3.13,2.13-3.51,7.05,4.72-.14,3.13-.35,3.69-1.19,8.19-5.42,4.08-.94-2.52.32-5.49,3.26-5.15.89.1,1.59.94,2.15,1.07Z"/>
    <path class="cls-12" d="M936.27,512.59c-.93-1-2.51-1.23-2.94-2.17-1.41-3.12,3.74-4.43,5.26-1.82-.88,1.68,1.44,4.97,1.07,5.72-1.53,3.12-3.22-1.55-3.39-1.73Z"/>
    <path class="cls-12" d="M791.38,402.77c.73.77.68,5.75-2.99,5.01-6.61-1.33-.72-8.91,2.99-5.01Z"/>
    <path class="cls-12" d="M1081.1,660.05c1.94,3.28-3.24,7.18-5.56,3.3-1.96-3.28,3.6-6.61,5.56-3.3Z"/>
    <path class="cls-12" d="M599.08,672.6c-1.74-5.44,7.85-5.75,6.16-.13-.95,3.18-5.77,1.36-6.16.13Z"/>
    <path class="cls-12" d="M969.72,338.98c-2.27,1.36-5.8-.96-4.26-3.9,2.77-5.29,8.93,1.11,4.26,3.9Z"/>
    <path class="cls-12" d="M731.46,616.01c.75-2.96,6.45-2.84,6.11.85-.48,5.27-7.08,2.97-6.11-.85Z"/>
    <path class="cls-12" d="M931.99,702.96c.62-.42.27-2.46,1.66-1.5,3.8,2.63-1.18,9.92-3.99,5.86-2.2-3.18.76-3.3,2.32-4.36Z"/>
    <path class="cls-12" d="M787.37,584.36c-.32-4.18,5.06-5.05,5.79-1.67,1.08,5.02-5.53,5.06-5.79,1.67Z"/>
    <path class="cls-12" d="M817.32,575.6l-.05-2.96,2.2-1.3c2.24-.12,4.07,2.8,3.41,4.75l-1.6,1.34-3.96-1.84Z"/>
    <path class="cls-12" d="M779.32,367.49c-1.63.09-3.38-1.05-3.45-2.75-.04-1.88.86-3.47,2.81-3.75,1.69-.05,2.81,1.05,3.07,2.65l-2.44,3.85Z"/>
    <path class="cls-12" d="M835.78,523.24c2.44-1.41,6.69,1.58,4.13,4.51-2.89,3.31-7.83-2.38-4.13-4.51Z"/>
    <path class="cls-12" d="M954.95,499.58c-3.8,1.22-6.79-4.74-2.01-5.9,3.79-.92,4.44,5.12,2.01,5.9Z"/>
    <path class="cls-12" d="M990.66,664.75c.05-1.89,8.35-3.56,7.53,1.34l-1.28,1.41c-1.27,1.07-6.28-1.68-6.25-2.75Z"/>
    <path class="cls-12" d="M924.88,683.22c1.25-.75,5.9,5.96,3.65,8.11-.56.54-3.65-.2-3.9-1.03l.25-7.08Z"/>
    <path class="cls-12" d="M784.02,660.69c.63-2.45,4.47-2.95,5.63-.07,2.16,5.36-6.78,4.54-5.63.07Z"/>
    <path class="cls-12" d="M667.22,533.9c1.51-1.44,7.2,1.15,4.19,4.61-2.78,3.19-6.78-2.14-4.19-4.61Z"/>
    <path class="cls-12" d="M898.2,509.37c1.35-.6,4.16.14,5.23,1.25l-1.49,3.59-1.99.5c-2.22-.49-3.9-4.39-1.75-5.34Z"/>
    <path class="cls-12" d="M796.53,396.82c1.52,4.89-6.36,5.85-5.8.78.39-3.51,5.35-2.23,5.8-.78Z"/>
    <path class="cls-12" d="M1081.25,501.78c.83-3.14,6.65-2.57,6.11.86-.62,3.97-7.04,2.65-6.11-.86Z"/>
    <path class="cls-12" d="M899.63,483.59c-.09-4.03,5.64-3.86,5.72-.41.09,4.03-5.64,3.86-5.72.41Z"/>
    <path class="cls-12" d="M911.22,386.95c-.09-4.03,5.64-3.86,5.72-.41.09,4.03-5.64,3.86-5.72.41Z"/>
    <path class="cls-12" d="M816.47,509.5c1.09,3.39-4.66,5.98-5.9,2.04-1.29-4.09,5.18-4.29,5.9-2.04Z"/>
    <path class="cls-12" d="M1052.19,662.57c-1.53,1.44-6.9-1.48-4.22-4.6,2.77-3.22,6.82,2.15,4.22,4.6Z"/>
    <path class="cls-12" d="M840.8,375.49c4.62-2.68,6.12,6.59,1.02,5.23-2.56-.68-3.05-4.06-1.02-5.23Z"/>
    <path class="cls-12" d="M777.77,726.16c-2,1.22-4.73-.83-4.1-3.4,1.25-5.12,8.67.64,4.1,3.4Z"/>
    <path class="cls-12" d="M991.33,573.15c1.41,2.39-.67,4.67-3.31,4.04-5.35-1.28.66-8.53,3.31-4.04Z"/>
    <path class="cls-12" d="M1014.75,590.53c1.51-1.91,1.69-6.99,4.24-6.86l1.18,2.22c-3.08,2.02.76,4.97-3.33,5.8l-2.09-1.16Z"/>
    <path class="cls-12" d="M911.71,527.4c-.11-3.71,5.65-3.58,5.71-.42.08,4.01-5.61,3.88-5.71.42Z"/>
    <path class="cls-12" d="M935.94,700.07c-.14-5.2,8.45-2.29,4.9,1.77-1.57,1.81-4.84.61-4.9-1.77Z"/>
    <path class="cls-12" d="M998.69,554.02c1.11-2.99,4.16-3.5,5.37-.3,2.52,6.63-5.55,2.83-5.37.3Z"/>
    <path class="cls-12" d="M767.35,688.32c-.39-5.09,5.79-3.45,5.77-.47-.02,3.08-5.58,3.02-5.77.47Z"/>
    <path class="cls-12" d="M916.02,721.02l5.09.61.74,1.88-5.23,2c-2.01-.7-1.3-2.96-.6-4.49Z"/>
    <path class="cls-12" d="M791.81,517.45c-3.4,1.96-6.14-3.23-2.61-4.9,2.78-1.32,5.26,3.38,2.61,4.9Z"/>
    <path class="cls-12" d="M1010.42,681.7c-1.25-3.91,4.95-5,5.74-1.34.7,3.27-5.04,3.51-5.74,1.34Z"/>
    <path class="cls-12" d="M754.35,644.21c1.23,2.02-1.41,6.01-3.94,3.21-3.31-3.66,1.99-6.41,3.94-3.21Z"/>
    <path class="cls-12" d="M822.2,553.25c.02-4.05,8.57-2.41,4.93,1.77-1.6,1.84-4.94.49-4.93-1.77Z"/>
    <path class="cls-12" d="M929.99,481.24c-.27-4.11,6-3.77,5.78-.52-.2,3.03-5.61,3.11-5.78.52Z"/>
    <path class="cls-12" d="M874.23,480.63l5.04-.26-1.28,4.67c-3.83.73-5.64-.57-3.76-4.41Z"/>
    <path class="cls-12" d="M1009.14,348.04c.24-3.41,6.13-3.05,5.52.82-.58,3.72-5.68,1.46-5.52-.82Z"/>
    <path class="cls-12" d="M882.13,611.86c-1.5-4.71,6.66-4.59,5.53-.31-.77,2.91-5.1,1.66-5.53.31Z"/>
    <path class="cls-12" d="M981.64,762.33c-2.05.66-6.01-2.67-3.12-4.76,3.92-2.84,5.53,3.99,3.12,4.76Z"/>
    <path class="cls-12" d="M1113.72,656.02c.19-3.52,5.35-1.84,4.27,1.87-1.45,4.97-4.48,2.05-4.27-1.87Z"/>
    <path class="cls-12" d="M826.33,766.56c1.44,2.5-1.44,5.6-3.65,3.64-2.86-2.55,1.68-7.04,3.65-3.64Z"/>
    <path class="cls-12" d="M789.75,592.21c-.13-4.78,7.53-2.23,4.21,1.58-1.54,1.77-4.15.66-4.21-1.58Z"/>
    <path class="cls-12" d="M985.35,620.37c.01-2.79,4.89-3.26,5.08-.64.35,4.85-5.1,3.66-5.08.64Z"/>
    <path class="cls-12" d="M868.37,572.27c.15-.15,3.18-1.59,3.71-2.08,2.42.56,3.63,3.17.61,4.04-1.37.39-6.84.65-4.32-1.96Z"/>
    <path class="cls-12" d="M784.25,538.87c-1.42,1.34-6.04-1.12-3.7-3.75,2.6-2.93,6.29,1.29,3.7,3.75Z"/>
    <path class="cls-12" d="M1055.96,620.11c3.4-1.1,5.34,4.16,1.52,5.04-3.43.79-3.37-4.44-1.52-5.04Z"/>
    <path class="cls-12" d="M684.84,592.2c1.1,3.4-4.16,5.34-5.04,1.52-.79-3.43,4.44-3.37,5.04-1.52Z"/>
    <path class="cls-12" d="M793.13,572.4c-1.68,1.59-5.64-1.49-3.71-3.74,2.51-2.93,6.36,1.23,3.71,3.74Z"/>
    <path class="cls-12" d="M982.3,558.4c1.11-1.04,5.41.38,3.91,3.09-2.24,4.06-6.73-.45-3.91-3.09Z"/>
    <path class="cls-12" d="M1258.51,567.14c4.23-1.35,5.18,6.48.56,4.93-2.55-.86-1.78-4.54-.56-4.93Z"/>
    <path class="cls-12" d="M1058.42,569.85c1.12,3.47-4.25,5.28-5.05,1.5-.61-2.91,4.34-3.71,5.05-1.5Z"/>
    <path class="cls-12" d="M625.95,476.26c-.28-3.86,4.95-2.87,5.12-.68.27,3.6-4.9,3.63-5.12.68Z"/>
    <path class="cls-12" d="M837.16,674.12c-.11-4.19,4.89-2.64,4.87.08-.02,2.9-4.79,3.31-4.87-.08Z"/>
    <path class="cls-12" d="M793.16,698.21c-.89-2.41,4.18-5.49,5.08-1.53.78,3.45-4.41,3.34-5.08,1.53Z"/>
    <path class="cls-12" d="M865.1,387.14c-3.29,1.85-5.79-3.39-2.35-4.44,3.1-.95,4.44,3.27,2.35,4.44Z"/>
    <path class="cls-12" d="M992.46,733.64c.52-.17.2-1.41,1.18-.86l.23,4.06c-1.53,2.64-6.09.13-5.09-1.97.54-1.13,2.67-.89,3.68-1.23Z"/>
    <path class="cls-12" d="M960.88,826.91c4.82.96.15,3.52-.22,6.49-5.73-2.26-1.12-3.3.22-6.49Z"/>
    <path class="cls-12" d="M946.71,506.21c-2.55,2.4-5.86-3.24-2.41-4.56,2.95-1.13,4.13,2.95,2.41,4.56Z"/>
    <path class="cls-12" d="M904.25,739.38c.6-2.37,3.89-2.61,4.45.05,1,4.72-5.36,3.53-4.45-.05Z"/>
    <path class="cls-12" d="M933.43,668.87c1.89,3.19-3.48,4.89-4.45,2.35-.96-2.49,2.8-5.13,4.45-2.35Z"/>
    <path class="cls-12" d="M1010.12,483.25c.1-3.41,2.98-2.96,5.14-4.48l.88,2.37c-1.97,1.6-3.2,3.43-6.02,2.11Z"/>
    <path class="cls-12" d="M1009.25,592.62c-1.62-2.63,3.36-5.21,4.47-2.35.95,2.46-2.75,5.14-4.47,2.35Z"/>
    <path class="cls-12" d="M870.37,332.76c1.62,1.92-2.08,6.52-4.15,3.04-1.77-2.99,2.86-4.56,4.15-3.04Z"/>
    <path class="cls-12" d="M873.13,533.51c2.85-1.63,4.81,2.5,2.8,4.2-2.35,1.98-5.48-2.67-2.8-4.2Z"/>
    <path class="cls-12" d="M1080.43,578.37c1.41-1.33,5.15,1.54,3.57,3.49-2.8,3.47-5.96-1.25-3.57-3.49Z"/>
    <path class="cls-12" d="M872.27,735.84c-1.67-1.75,2.15-5.4,4.3-2.85,1.98,2.35-2.19,5.06-4.3,2.85Z"/>
    <path class="cls-12" d="M953.05,769c1.24,3.39-4.99,4.14-5,.35,0-3.35,4.64-1.33,5-.35Z"/>
    <path class="cls-12" d="M1026.71,785.78c-.02-3.49,5.76-2.7,4.88.67-.51,1.96-4.86,2.1-4.88-.67Z"/>
    <path class="cls-12" d="M865.23,508.96c1.84,3.11-3.43,5.26-4.25,1.63-.59-2.62,2.89-3.91,4.25-1.63Z"/>
    <path class="cls-12" d="M957.59,719.83c-1.75,1.67-5.4-2.15-2.85-4.3,2.35-1.98,5.06,2.19,2.85,4.3Z"/>
    <path class="cls-12" d="M478.39,282.64c-1.67-1.75,2.15-5.4,4.3-2.85,1.98,2.35-2.19,5.06-4.3,2.85Z"/>
    <path class="cls-12" d="M1072.02,361.12c2.33-1.32,4.74,1.46,2.97,3.47-2.67,3.05-5.61-1.97-2.97-3.47Z"/>
    <path class="cls-12" d="M1104.21,749.43c1.88,2.23-3.09,6.24-4.61,2.44-.99-2.47,3.47-3.79,4.61-2.44Z"/>
    <path class="cls-12" d="M1000.32,493.38c-.16-2.74,3.66-4.57,4.29-1.35.82,4.18-4.15,3.72-4.29,1.35Z"/>
    <path class="cls-12" d="M650.21,705.4c-4.09,2.44-9.57,4.39-14.37,5.04,4.09-2.44,9.57-4.39,14.37-5.04Z"/>
    <path class="cls-12" d="M957.63,498.44c-.01-3.21,4.93-1.8,4.99-.03.1,2.87-4.98,3.46-4.99.03Z"/>
    <path class="cls-12" d="M946.97,428.03c1.32,2.33-1.46,4.74-3.47,2.97-3.05-2.67,1.97-5.61,3.47-2.97Z"/>
    <path class="cls-12" d="M1250.5,492.4c1.26,1.34-1.15,5.16-3.57,3.02-3-2.65,1.5-5.23,3.57-3.02Z"/>
    <path class="cls-12" d="M1068.61,558.43c-1.34,1.26-5.16-1.15-3.02-3.57,2.65-3,5.23,1.5,3.02,3.57Z"/>
    <path class="cls-12" d="M977.08,704.07c-.01-4.03,5.94-1.03,4.48,1.97-.78,1.59-4.48.29-4.48-1.97Z"/>
    <path class="cls-12" d="M933.73,694.42c0-2.53,4.3-3.36,4.43-.82.17,3.34-4.42,4.3-4.43.82Z"/>
    <path class="cls-12" d="M827.33,706.22c-.92.9-5.26-1.09-3.03-3.62,2.63-2.99,5.2,1.48,3.03,3.62Z"/>
    <path class="cls-12" d="M803.62,449.47c2.91-.88,5.61,3.52,1.72,4.39-3.29.74-2.95-4.02-1.72-4.39Z"/>
    <path class="cls-12" d="M1004.24,741.86c-2.79,1.64-5.15-3.47-1.65-4.28,2.81-.65,3.44,3.24,1.65,4.28Z"/>
    <path class="cls-12" d="M649.95,387.91c-.19-3.19,3.59-3.38,4.33-1.4,1.32,3.49-4.16,4.24-4.33,1.4Z"/>
    <path class="cls-12" d="M680.48,430.6c-.19-3.19,3.59-3.38,4.33-1.4,1.32,3.49-4.16,4.24-4.33,1.4Z"/>
    <path class="cls-12" d="M781.96,596.83c-.18-3.64,4.35-3.7,4.48-.86.11,2.43-4.35,3.49-4.48.86Z"/>
    <path class="cls-12" d="M693.23,493.99c.85,2.67-3.45,4.28-4.41,1.75-1.37-3.63,3.8-3.67,4.41-1.75Z"/>
    <path class="cls-12" d="M1045.24,784.11c.09-1.81,5.75-1.83,5.79.04.07,3.44-5.87,1.62-5.79-.04Z"/>
    <path class="cls-12" d="M800.48,487.14l-.53,2.03c-8.54.34-7.65-5.27.53-2.03Z"/>
    <path class="cls-12" d="M1156.15,828.07c5.3.78,4.6,8.04-.75,3.34l.75-3.34Z"/>
    <path class="cls-12" d="M991.87,720.2c-.01-3.54,5.02-1.45,4.67.57-.43,2.44-4.66,2.5-4.67-.57Z"/>
    <path class="cls-12" d="M924.93,327.91c1.72-1.07,3.1.65,2.86,2.4-.64,4.67-6.61-.06-2.86-2.4Z"/>
    <path class="cls-12" d="M1036.25,483.67c-.2-3.81,4.47-2.92,4.53-.92.07,2.45-4.39,3.59-4.53.92Z"/>
    <path class="cls-12" d="M834.32,784.4c-.97-.16-1.84-.39-2.62-1.04-3.61-3,5.55-6.52,2.62,1.04Z"/>
    <path class="cls-12" d="M916.24,802.42c2.57-1.01,4.07,5.48,1.16,5.38-1.83-.06-2.65-4.79-1.16-5.38Z"/>
    <path class="cls-12" d="M965.02,651.31l2.96,1.44-.94,4.89-2.73-.7c1.53-2.34.99-3.15.71-5.63Z"/>
    <path class="cls-12" d="M1019.71,755.54l-.75,3.33-3.28-.94c-.91-3.28,1.75-4.68,4.03-2.39Z"/>
    <path class="cls-12" d="M665.91,410.59c-1.39-6.31,6.22-3.79,3.42-.57-.82.94-2.29,1.08-3.42.57Z"/>
    <path class="cls-12" d="M835.77,531.32c.16-1.74,4.17-2.67,4.3-.19.21,4.14-4.52,2.61-4.3.19Z"/>
    <path class="cls-12" d="M855.22,543.31c.94-.82,4.84,1.04,3.47,3.4-1.43,2.45-5.92-1.24-3.47-3.4Z"/>
    <path class="cls-12" d="M587.73,699.62l2.03.51c.34.55-2.02,6.7-4.29,5.44l2.27-5.95Z"/>
    <path class="cls-12" d="M1046.13,829.08c.94-.82,4.84,1.04,3.47,3.4-1.43,2.45-5.92-1.24-3.47-3.4Z"/>
    <path class="cls-12" d="M850.45,633.22c.16-1.74,4.17-2.67,4.3-.19.21,4.14-4.52,2.61-4.3.19Z"/>
    <path class="cls-12" d="M937.04,678.35c.69-.26,3.14.84,3.13,1.9l-2.5,4.05-1.35-.35,1.09-1.77c-1.86-.29-1.23-3.51-.36-3.83Z"/>
    <path class="cls-12" d="M1114.71,708.73c-.21-4.14,4.52-2.61,4.3-.19-.16,1.74-4.17,2.67-4.3.19Z"/>
    <path class="cls-12" d="M928.15,491.33c-1.31-3.28,4.72-3.99,4.39-.54-.2,2.01-3.83,1.94-4.39.54Z"/>
    <path class="cls-12" d="M979.28,384.85c-.09-2.42,4.26-3.37,4.31-.22.05,3.02-4.24,2.02-4.31.22Z"/>
    <path class="cls-12" d="M707.96,507.88c1.88-1.62,5.5,3.21,2.47,4.17-2.36.74-4.04-2.82-2.47-4.17Z"/>
    <path class="cls-12" d="M430.58,474.88c1.31,3.28-4.72,3.99-4.39.54.2-2.01,3.83-1.94,4.39-.54Z"/>
    <path class="cls-12" d="M836.05,766.3c-.12-2.94,4.35-2.26,4.43-.31.12,2.94-4.35,2.26-4.43.31Z"/>
    <path class="cls-12" d="M928.75,759.35c.15-1.89,4.34-2.45,4.36-.23.03,2.93-4.6,3.21-4.36.23Z"/>
    <path class="cls-12" d="M1016.31,519.07l3.53.1-2.07,3.82c-2.35-.15-2.35-2.36-1.46-3.93Z"/>
    <path class="cls-12" d="M998.52,596.96c-.03-2.93,4.6-3.21,4.36-.23-.15,1.89-4.34,2.45-4.36.23Z"/>
    <path class="cls-12" d="M996.37,650.66c.9,2.79-3.66,4.41-4.23,1.04-.36-2.11,3.64-2.88,4.23-1.04Z"/>
    <path class="cls-12" d="M730.23,525.9l-2.59-.78c-1.14-3.08,1.67-5.79,3.23-2.21l-.65,2.99Z"/>
    <path class="cls-12" d="M812.17,424.87c1.97-1.2,3.64,1.43,2.7,3.04-1.46,2.49-5.93-1.07-2.7-3.04Z"/>
  </g>
  <text class="cls-2" transform="translate(165.57 688.92) scale(.66 1)"><tspan x="0" y="0">LES DERNIERS FILS</tspan></text>
  <text class="cls-1" transform="translate(168.53 688.92) scale(.66 1)"><tspan x="0" y="0">LES DERNIERS FILS</tspan></text>
  <text class="cls-6" transform="translate(684.01 976.28) scale(1.21 1)"><tspan x="0" y="0">TROYES</tspan></text>
  <g>
    <line class="cls-4" x1="1436" y1="716.49" x2="235.88" y2="716.49"/>
    <path class="cls-5" d="M756.68,716.49s-39.05,13.92-39.05,27.06c0,0-7.35-27.84-51.04-27.06"/>
    <path class="cls-5" d="M996.11,716.49s-39.05,13.92-39.05,27.06c0,0-7.35-27.84-51.04-27.06"/>
    <ellipse class="cls-5" cx="855.34" cy="755.54" rx="4.06" ry="4.25"/>
    <ellipse class="cls-5" cx="899.41" cy="747.81" rx="4.06" ry="4.25"/>
    <ellipse class="cls-5" cx="1432.71" cy="716.49" rx="7.35" ry="7.7"/>
    <ellipse class="cls-5" cx="235.88" cy="716.49" rx="7.35" ry="7.7"/>
    <ellipse class="cls-5" cx="958.63" cy="725.76" rx="4.06" ry="4.25"/>
    <ellipse class="cls-5" cx="719.18" cy="725.76" rx="4.06" ry="4.25"/>
    <ellipse class="cls-5" cx="820.02" cy="756.32" rx="4.06" ry="4.25"/>
    <ellipse class="cls-5" cx="777.37" cy="747.81" rx="4.06" ry="4.25"/>
    <ellipse class="cls-5" cx="794.71" cy="735.01" rx="2.64" ry="2.77"/>
    <ellipse class="cls-5" cx="826.73" cy="737.07" rx="2.64" ry="2.77"/>
    <ellipse class="cls-5" cx="849.8" cy="736.55" rx="2.64" ry="2.77"/>
    <ellipse class="cls-5" cx="881.12" cy="735.01" rx="2.64" ry="2.77"/>
    <path class="cls-5" d="M838.26,724.93s13.73,46.98,0,46.59c-13.73-.39,0-46.59,0-46.59Z"/>
    <path class="cls-5" d="M826.73,724.93s-28.49,13.15-35.44,29.77c-6.96,16.63,9.47,12.18,9.47,12.18l25.97-41.95Z"/>
    <path class="cls-5" d="M849.8,724.93s28.49,13.15,35.44,29.77c6.96,16.63-9.47,12.18-9.47,12.18l-25.97-41.95Z"/>
    <path class="cls-5" d="M808.15,722.61s-42.57,14.63-54.17,28.68c-11.6,14.05-19.53-6.27-9.67-11.96,9.86-5.69,63.84-16.71,63.84-16.71Z"/>
    <path class="cls-5" d="M867.84,721.01s42.57,14.63,54.17,28.68c11.6,14.05,19.53-6.27,9.67-11.96-9.86-5.69-63.84-16.71-63.84-16.71Z"/>
  </g>
  <g>
    <line class="cls-4" x1="230.45" y1="516.32" x2="1430.58" y2="516.32"/>
    <path class="cls-5" d="M909.78,516.32s39.05-13.92,39.05-27.06c0,0,7.35,27.84,51.04,27.06"/>
    <path class="cls-5" d="M670.34,516.32s39.05-13.92,39.05-27.06c0,0,7.35,27.84,51.04,27.06"/>
    <ellipse class="cls-5" cx="811.12" cy="477.27" rx="4.06" ry="4.25"/>
    <ellipse class="cls-5" cx="767.04" cy="485" rx="4.06" ry="4.25"/>
    <ellipse class="cls-5" cx="233.74" cy="516.32" rx="7.35" ry="7.7"/>
    <ellipse class="cls-5" cx="1430.58" cy="516.32" rx="7.35" ry="7.7"/>
    <ellipse class="cls-5" cx="707.82" cy="507.05" rx="4.06" ry="4.25"/>
    <ellipse class="cls-5" cx="947.28" cy="507.05" rx="4.06" ry="4.25"/>
    <ellipse class="cls-5" cx="846.43" cy="476.5" rx="4.06" ry="4.25"/>
    <ellipse class="cls-5" cx="889.09" cy="485" rx="4.06" ry="4.25"/>
    <ellipse class="cls-5" cx="871.75" cy="497.8" rx="2.64" ry="2.77"/>
    <ellipse class="cls-5" cx="839.73" cy="495.74" rx="2.64" ry="2.77"/>
    <ellipse class="cls-5" cx="816.66" cy="496.26" rx="2.64" ry="2.77"/>
    <ellipse class="cls-5" cx="785.34" cy="497.8" rx="2.64" ry="2.77"/>
    <path class="cls-5" d="M828.2,507.88s-13.73-46.98,0-46.59c13.73.39,0,46.59,0,46.59Z"/>
    <path class="cls-5" d="M839.73,507.88s28.49-13.15,35.44-29.77c6.96-16.63-9.47-12.18-9.47-12.18l-25.97,41.95Z"/>
    <path class="cls-5" d="M816.66,507.88s-28.49-13.15-35.44-29.77c-6.96-16.63,9.47-12.18,9.47-12.18l25.97,41.95Z"/>
    <path class="cls-5" d="M858.31,510.2s42.57-14.63,54.17-28.68c11.6-14.05,19.53,6.27,9.67,11.96-9.86,5.69-63.84,16.71-63.84,16.71Z"/>
    <path class="cls-5" d="M798.62,511.8s-42.57-14.63-54.17-28.68c-11.6-14.05-19.53,6.27-9.67,11.96,9.86,5.69,63.84,16.71,63.84,16.71Z"/>
  </g>
  <path class="cls-8" d="M290.2,396.21c1.56,0,3.13.19,4.63.62,5.27,1.5,10.91,4.02,13.88,14.18,1.35,4.63,1.39,20.76-1.33,22.83-8.61,6.52-3.31-16.86-8.13-22.92-16.7-21.01-53.06,7.74-32.99,39.93,14.53,23.31,48.37,20.64,69.53,9.23,35.86-19.35,54.86-85.11,72.96-122.12,172.3-352.3,660.38-355.61,837.62-5.04,22.12,43.74,38.96,115.91,87.57,131.9,25.66,8.44,65.17,1.02,63.34-33.97-1.63-31.28-38.92-33.4-42.04-12.79-.77,5.09,2.25,9.78,1.92,11.88-1.7,10.7-12.43.3-9.91-15.01.61-3.71,2.69-7.03,5.61-9.4l4.38-3.55c3.89-3.15,8.68-4.97,13.67-5.22,3.05-.15,6.13-.31,8.68-.21,4.14.91,8.88,1.89,14.49,7.22,16.21,15.39,12.92,45.19-2.55,59.97-26.3,25.15-69.54,10.22-92.83-12.14-5.33-5.12-7.58-15.14-15.39-15.24,8.96,49.08-16.42,106.3-70.16,100.59-33.72-3.58-53.59-33.55-48.95-68.86,6.71-51.01,77.58-53.7,73.75,1.06h-7.14c2.75-43.27-52.53-41.26-59.08-.68-12.39,76.75,96.99,83.16,104.54,4.58,8.03-83.64-71.44-206.08-127.72-261.22C917.88-14.17,544.17,57.91,407.92,357.24c-17.62,38.7-37.59,91.65-21.88,133.47,13.5,35.93,50.4,50.68,82.49,28.95,17.87-12.1,21.94-55.82,9.58-70.79-18.33-22.21-55.71-12.49-51.41,20.28-22.84-2.22-1.93-32.81,10.57-38.02,19.76-8.24,47.91,5.05,54.42,26.08,15.5,50.11-25.95,92.89-72.07,78.7-39.69-12.21-50.94-57.86-47.81-97.03-22.17,26.22-47.25,42.48-82.09,37.62-30.58-4.27-49.97-45.24-28.69-70.24,5.3-6.23,9.72-8.7,13.18-9.72,1.18-.35,2.42-.5,3.66-.52,4.2-.06,8.16.17,12.34.19Z"/>
  <path class="cls-11" d="M1348.9,882.84c-12.39-6.15-21.18-14.44-22.52-20.82-1.48-7.07.15-10.19,1.33-14.77,3.32-12.93,20.58-24.32,39.72-21.89,6.61.84,17.3,6.51,7.01,8.46-9.84,1.87-29.78-8.57-36.14,10.58-10.36,31.18,36.74,46.66,68,29.84,7.69-4.14,20.38-20.44,20.79-27.12.91-14.91-16.96-31.81-34.8-37.95-95.36-32.82-235.58,122.81-303.24,155.9-186.68,91.29-321.28,113.42-505.67,12.84-67.87-37.02-193.33-185.4-288.34-174.58-27.96,3.18-55.94,20.32-55.82,42.07.26,45.91,96.02,46.5,87.21,1.9-1.78-9-11.5-15.15-23.93-16.07-6.59-.49-10.48,3.19-13.28,2.79-9.62-1.39-.14-7.7,7.28-8.64,38.8-4.94,53.7,36.96,21.37,53.9-51.7,27.09-115.4-23.18-73.6-61.85,29.82-27.58,82.51-23.72,124.13-9.54,7.67,2.61,21.86,8.32,28.48,13l80.16,61.56c-4.76-18.5-6.91-62.22,15.65-79.88,50.18-39.27,121.44,23.64,76.07,53.16-15.03,9.78-43.65,11.13-53.24-3.2-5.26-7.86.14-12.01,5.64-5.77,21.4,24.27,59.64,3.53,51.61-23.32-5.23-17.49-33.15-25.43-55.72-22.53-36.49,4.69-42.03,59.82-28.24,81.54,11.96,18.85,88.58,86.97,113.91,98.11,185.68,81.65,285.32,70.29,441.15-1.32,30.1-13.83,135.46-76.5,141.56-102.71,6.77-29.08-23.31-81.34-64.51-75.32-17.87,2.61-37.63,22.64-32.2,34.49,3.62,7.9,20.44,20.16,26.86,21.06,15.66,2.19,17.89-5.23,26.75-10.36,13.92-8.05,10.51,11.07-6.85,16.05-14.52,4.17-29.68.91-40.66-6.49-32.63-21.96-8.57-56.4,31.5-61.39,48.32-6.01,79.53,50.94,67.01,81.94,4.19.79,18.23-9.84,20.66-11.19,39.55-22.03,58.52-48.04,110.62-62.72,37.36-10.52,69.74-6.01,96.18,15.79,1.76,1.45,10.56,8.74,11.15,9.33,3.65,3.7,6.66,9.83,7.05,13.86,1.02,10.53-13.9,31.05-18.52,33.86,0,0-28.78,23.29-71.56,7.4Z"/>
</svg>