<svg width="107" height="114" viewBox="0 0 107 114" fill="none" xmlns="http://www.w3.org/2000/svg">
<g clip-path="url(#clip0_472_30)">
<path d="M100.591 0H6.40878C2.86931 0 0 2.87008 0 6.4105V107.59C0 111.13 2.86931 114 6.40878 114H100.591C104.131 114 107 111.13 107 107.59V6.4105C107 2.87008 104.131 0 100.591 0Z" fill="#892A3E"/>
<path d="M62.6994 30.7438L74.9776 30.1883L71.4901 22.3728L61.0225 20.9785L62.6994 30.7438Z" fill="#FCE7DB"/>
<path d="M63.1158 63.9554L67.9972 80.2808C67.9972 80.2808 55.9967 89.0739 48.883 88.6519C41.7692 88.2352 46.6506 56.5566 46.6506 56.5566L63.1105 63.9501L63.1158 63.9554Z" fill="#F2C5A6"/>
<path d="M84.0033 101.441H33.6089L45.887 86.2858C45.887 86.2858 46.0847 86.4888 46.5226 86.7452C47.4572 87.2954 49.4653 88.0753 52.8619 87.5678C55.0035 87.2527 57.6952 86.4193 61.0118 84.6885C61.0278 84.6778 61.0492 84.6671 61.0652 84.6564C62.9611 83.6681 65.0547 82.386 67.3672 80.7353C67.5808 80.5911 67.7891 80.4362 68.0027 80.2812C68.0027 80.2812 68.3125 80.3133 68.8465 80.4308C68.8572 80.4308 68.8625 80.4308 68.8732 80.4308C69.0281 80.4682 69.2043 80.511 69.4019 80.5644C69.418 80.5644 69.434 80.5644 69.45 80.5751C73.0282 81.5473 82.1501 85.5592 84.0086 101.436L84.0033 101.441Z" fill="#EEA9BC"/>
<path d="M64.371 32.5604C64.371 32.5604 66.1868 23.3506 75.9496 29.9107C85.7176 36.4708 72.601 70.5212 72.601 70.5212L63.3937 66.6161C63.3937 66.6161 53.9087 65.6385 47.7669 58.9396C47.7669 58.9396 43.8255 48.7522 46.6133 46.1026C49.4012 43.4529 55.4361 27.9608 64.3657 32.5657L64.371 32.5604Z" fill="#F2C5A6"/>
<path d="M63.399 66.4722C63.399 66.4722 41.4276 59.5329 42.1646 58.5713C49.4279 49.0731 37.0322 60.628 37.0322 60.628L46.6401 56.0231L63.399 66.4776" fill="#E2B99D"/>
<path d="M83.2074 75.3985C83.2074 75.3985 73.9948 77.9146 72.6009 80.8421C72.6009 80.8421 71.3298 80.9917 69.4446 80.5803C69.4285 80.575 69.4125 80.5696 69.3965 80.5696C69.2256 80.5269 69.0494 80.4895 68.8678 80.4361C68.8624 80.4361 68.8518 80.4361 68.8411 80.4361C68.6061 80.372 68.3551 80.2972 68.0987 80.2117C68.056 80.201 68.0079 80.185 67.9652 80.169C65.9625 79.4959 63.5699 78.1871 61.3001 75.6816C61.3001 75.6816 62.5551 66.6108 63.3936 66.6108L63.9544 66.7604L68.1414 67.8715C68.1414 67.8715 70.5074 68.7102 71.49 66.1941C72.1363 64.5274 74.0803 61.3168 75.3139 59.3562C76.0029 58.2504 76.3607 56.979 76.35 55.6809C76.318 51.1241 76.9909 40.6964 77.2099 39.5478C77.5944 37.5285 74.0001 23.1156 70.235 27.4426C70.235 27.4426 65.4925 14.7125 65.3536 36.7592C65.3536 36.7592 65.9091 45.1303 46.656 50.9905L47.4891 56.947L47.7722 58.9449C47.7722 58.9449 49.1714 70.5265 48.7495 72.2039C48.333 73.876 49.4438 80.4361 49.4438 80.4361C49.4438 80.4361 50.5013 83.4918 52.8565 87.5785C52.9473 87.7494 53.0488 87.9203 53.1556 88.0913C54.9554 91.1523 57.4601 94.7262 60.7446 98.0169C62.0798 99.3524 62.913 100.485 63.3669 101.452H15.0874C16.2944 100.357 20.1183 96.6546 22.7726 91.6598C24.5457 88.3317 25.3041 84.5495 25.021 80.7887C24.8341 78.3313 24.9783 73.2243 26.7567 62.8927C26.9063 62.0166 26.9864 61.1191 26.9971 60.2323L27.1252 49.3185C27.1252 49.3185 26.1479 14.9903 51.3985 12.7573C76.6491 10.5243 83.2074 35.3596 83.2074 35.3596C83.2074 35.3596 83.0686 40.1034 94.5029 60.7559C94.5029 60.7559 101.2 74.2927 83.2074 75.4092V75.3985Z" fill="#FCE7DB"/>
</g>
<defs>
<clipPath id="clip0_472_30">
<rect width="107" height="114" fill="white"/>
</clipPath>
</defs>
</svg>
