<svg width="108" height="115" viewBox="0 0 108 115" fill="none" xmlns="http://www.w3.org/2000/svg">
<g clip-path="url(#clip0_472_255)">
<path d="M101.531 0H6.46868C2.89613 0 0 2.89525 0 6.46673V108.533C0 112.105 2.89613 115 6.46868 115H101.531C105.104 115 108 112.105 108 108.533V6.46673C108 2.89525 105.104 0 101.531 0Z" fill="#882A3E"/>
<path d="M41.8524 12.5679C41.8524 12.5679 39.7932 15.6611 39.5075 18.749C39.2272 21.8423 34.4458 20.9962 34.4458 20.9962L28.6347 23.7122L26.0095 33.547L28.7264 40.9461L30.6939 41.9753L34.1601 43.4735L49.5286 27.0803L55.1509 16.8683L47.1837 13.123L41.8416 12.5625L41.8524 12.5679Z" fill="#461D11"/>
<path d="M62.7516 50.4189L60.8757 66.3487L47.8467 65.6912L48.8763 57.915L62.7516 50.4189Z" fill="#EDBA9D"/>
<path d="M61.2475 50.3281C61.2475 50.3281 62.1854 61.4778 53.2802 64.3825C44.375 67.2871 51.9703 60.2599 51.9703 60.2599L61.2475 50.3281Z" fill="#DDAE98"/>
<path d="M91.4725 102.477H24.2144C23.9826 89.2629 32.9471 82.7423 32.9471 82.7423C32.9471 82.7423 41.3833 78.2425 44.0085 76.2756C46.6337 74.3086 42.7903 66.9042 42.7903 66.9042L43.3509 65.0343C45.8252 56.7838 64.18 57.5167 64.18 57.5167C64.2771 66.9797 64.5304 68.591 66.2177 71.0321C67.9049 73.4679 81.1172 79.8377 81.1172 79.8377C96.0005 84.7955 92.4967 99.1624 91.4725 102.477Z" fill="#50272F"/>
<path d="M41.944 27.5595C41.944 27.5595 31.8205 13.1333 28.7317 31.1216C28.7317 31.1216 23.5783 35.8046 32.4781 43.0203C32.4781 43.0203 24.7912 41.242 23.7616 37.3027C23.7616 37.3027 22.8236 32.6197 26.1981 28.5888C26.1981 28.5888 24.1389 19.1258 33.5077 20.2521L39.0384 19.6916C39.0384 19.6916 39.4158 11.8238 43.3509 12.104C47.286 12.3842 56.5632 14.071 56.5632 14.071L68.3739 22.4076C68.3739 22.4076 71.7484 23.4369 71.0908 28.6858C70.4331 33.9346 73.6189 40.1157 73.6189 40.1157C73.6189 40.1157 77.1821 43.958 71.3711 49.2015C65.56 54.4503 66.498 55.7598 66.498 55.7598C66.498 55.7598 67.2473 57.9154 70.6218 57.4465C70.6218 57.4465 69.4951 59.0417 66.3093 58.1956C66.3093 58.1956 63.1235 59.4135 68.3685 60.5398C68.3685 60.5398 67.8995 61.2889 64.8054 60.917C64.8054 60.917 68.3685 65.0396 64.2447 64.7593L63.544 63.4606C62.4012 61.3535 61.7597 59.0147 61.668 56.6274L61.5279 53.0492C61.5279 53.0492 73.0529 52.3001 69.2148 42.4599C69.2148 42.4599 64.6221 36.9308 60.5953 48.738L60.218 41.5222C60.218 41.5222 52.0621 39.3666 49.6255 28.8744C47.189 18.3821 46.6284 14.7284 44.7524 13.6021C42.8765 12.4758 37.7232 11.0747 41.9386 27.5595H41.944Z" fill="#50272F"/>
<path d="M62.094 53.7015L60.8757 53.141C60.8757 53.141 59.8461 60.9173 47.4748 66.1661C47.4748 66.1661 40.7258 67.6642 39.6962 65.1368C38.6666 62.6094 36.0414 61.6717 32.5752 46.2108C32.5752 46.2108 33.4162 40.7788 32.2949 38.1544C32.2949 38.1544 33.2329 22.1331 39.6962 26.6328L41.944 27.5705C41.944 27.5705 47.0974 24.9461 50.0029 25.1347C52.9084 25.3233 61.3447 40.4986 61.3447 40.4986L66.4496 40.1483C68.1961 40.0297 69.7701 41.2153 70.1313 42.929L70.4709 44.5403C70.8159 46.1677 70.5949 47.8706 69.851 49.358C69.258 50.5436 68.3039 51.5082 67.1288 52.1171L63.3176 54.0841L62.0994 53.7069L62.094 53.7015Z" fill="#EDBA9D"/>
</g>
<defs>
<clipPath id="clip0_472_255">
<rect width="108" height="115" fill="white"/>
</clipPath>
</defs>
</svg>
