<svg width="107" height="114" viewBox="0 0 107 114" fill="none" xmlns="http://www.w3.org/2000/svg">
<g clip-path="url(#clip0_472_196)">
<path d="M100.591 0H6.40878C2.86931 0 0 2.87008 0 6.4105V107.59C0 111.13 2.86931 114 6.40878 114H100.591C104.131 114 107 111.13 107 107.59V6.4105C107 2.87008 104.131 0 100.591 0Z" fill="#892A3E"/>
<path d="M64.216 38.4096C64.216 38.4096 63.6819 39.9748 58.3627 38.0784C58.3627 38.0784 56.2584 37.0474 53.4973 37.5442C53.4973 37.5442 55.1476 35.402 64.216 38.4096Z" fill="#CC9E74"/>
<path d="M68.9585 39.3181C68.9585 39.3181 72.7076 37.9184 74.3579 38.864C74.3579 38.864 73.7384 36.1021 68.9585 39.3181Z" fill="#CC9E74"/>
<path d="M70.4805 26.7431C70.4805 26.7431 64.7927 26.5775 60.3439 29.5477C55.8952 32.5179 66.1118 18.8262 66.1118 18.8262L72.6221 23.196L70.4805 26.7431Z" fill="#50272F"/>
<path d="M70.4806 26.7428C70.3151 19.5684 65.7007 21.2191 65.7007 21.2191C63.3081 27.9822 55.7244 36.4707 55.7244 36.4707C48.3863 40.0179 49.3797 42.6569 49.3797 42.6569C51.9325 50.077 47.3182 51.8079 47.3182 51.8079C46.1646 61.9471 48.883 62.1127 48.883 62.1127C47.5852 62.4546 46.4637 62.5294 45.497 62.4279C41.7906 62.0486 40.3914 59.1425 40.3914 59.1425C40.3113 60.462 41.1337 61.9471 41.1337 61.9471C37.9187 60.6276 36.8452 58.8113 36.8452 58.8113C35.9373 56.3379 34.2069 56.8348 34.2069 56.8348C26.0464 52.8763 29.7581 45.4561 29.7581 45.4561C27.451 42.8171 28.6046 40.5094 28.6046 40.5094L32.6421 36.4707C35.9373 33.2548 41.0483 20.2255 41.0483 20.2255C47.8897 12.0628 57.7805 13.628 57.7805 13.628C57.7805 13.628 65.9411 11.2348 73.3592 20.5567L70.4753 26.7428H70.4806Z" fill="#50272F"/>
<path d="M70.4805 26.7428C70.4805 26.7428 76.9107 28.3935 73.3645 42.4111C73.3645 42.4111 72.1415 46.2681 72.0614 50.7875C72.0453 51.6636 71.7837 52.5183 71.3297 53.2662C69.9091 55.606 66.8382 60.5368 65.6526 61.4129L65.7754 63.2773C65.7754 63.2773 70.2242 57.4223 70.7209 61.3808C70.7209 61.3808 68.5953 62.9354 70.064 62.5347C70.064 62.5347 72.291 65.7506 76.4941 60.884C76.4941 60.884 81.525 58.245 78.8013 53.9553C78.8013 53.9553 78.5983 48.2393 78.9882 45.4401C79.1271 44.4571 79.1644 43.4581 79.0309 42.4699C78.9081 41.5617 78.9668 40.349 79.7092 39.1097C79.7092 39.1097 83.2554 28.8849 73.3645 20.5566L70.4805 26.7428Z" fill="#50272F"/>
<path d="M86.6681 102.104H26.4736C25.9128 100.031 25.3574 96.7135 25.1438 91.473C24.6471 79.3518 34.0466 77.3752 34.0466 77.3752L36.5354 76.6968L36.7704 76.6327C36.7704 76.6327 48.1353 69.0202 59.9915 67.9892C62.0904 67.8075 64.2106 67.8289 66.2828 68.1387C80.0457 70.2008 78.5663 79.2716 78.5663 79.2716L79.0577 88.6737C85.6801 96.0725 86.7055 100.207 86.6734 102.109L86.6681 102.104Z" fill="#FCE7DB"/>
<path d="M46.5757 51.5625C46.5757 51.5625 48.4717 69.1273 35.5312 77.3701C35.5312 77.3701 40.231 74.8967 65.3695 93.0384C65.3695 93.0384 68.5044 74.7311 59.5161 69.7843C59.5161 69.7843 60.7552 64.5064 61.9087 63.0213C63.0623 61.5362 46.5757 51.5625 46.5757 51.5625Z" fill="#E5A385"/>
<path d="M61.7006 63.518C61.7006 63.518 60.013 67.1025 51.8525 60.6332C51.8525 60.6332 47.0726 55.9322 47.3182 52.8018C47.5639 49.666 61.7006 63.5233 61.7006 63.5233V63.518Z" fill="#D3957D"/>
<path d="M70.2083 26.4438C70.2083 26.4438 76.585 27.5176 73.7812 41.8077C73.7812 41.8077 73.1777 42.1389 72.462 50.5473C72.462 50.5473 71.6663 56.6426 63.3669 63.4698C63.0304 63.7476 62.6032 63.8918 62.1706 63.8704C60.2373 63.7743 54.0688 61.9633 45.7534 51.9736C45.7534 51.9736 50.9766 50.6541 48.9418 44.0567C48.9418 44.0567 48.2261 38.6719 55.0408 36.6365C55.0408 36.6365 58.6511 30.226 60.5898 28.9706C63.3936 27.1543 65.3162 26.1126 70.2083 26.4438Z" fill="#E5A385"/>
<path d="M60.8353 45.5999C63.4309 45.5999 65.535 43.6793 65.535 41.3102C65.535 38.9411 63.4309 37.0205 60.8353 37.0205C58.2397 37.0205 56.1355 38.9411 56.1355 41.3102C56.1355 43.6793 58.2397 45.5999 60.8353 45.5999Z" stroke="#1C222B" stroke-width="0.67" stroke-miterlimit="10"/>
<path d="M73.3378 46.861C75.7358 46.861 77.6797 45.0768 77.6797 42.8758C77.6797 40.6749 75.7358 38.8906 73.3378 38.8906C70.9398 38.8906 68.9958 40.6749 68.9958 42.8758C68.9958 45.0768 70.9398 46.861 73.3378 46.861Z" stroke="#1C222B" stroke-width="0.67" stroke-miterlimit="10"/>
<path d="M68.9958 42.2985C68.9958 42.2985 66.8275 41.4491 65.4763 42.0261" stroke="#1C222B" stroke-width="0.67" stroke-miterlimit="10"/>
<path d="M56.4401 39.9377L51.5854 38.2656" stroke="#1C222B" stroke-width="0.67" stroke-miterlimit="10"/>
</g>
<defs>
<clipPath id="clip0_472_196">
<rect width="107" height="114" fill="white"/>
</clipPath>
</defs>
</svg>
