<svg width="107" height="114" viewBox="0 0 107 114" fill="none" xmlns="http://www.w3.org/2000/svg">
<g clip-path="url(#clip0_472_162)">
<path d="M100.591 0H6.40878C2.86931 0 0 2.87008 0 6.4105V107.59C0 111.13 2.86931 114 6.40878 114H100.591C104.131 114 107 111.13 107 107.59V6.4105C107 2.87008 104.131 0 100.591 0Z" fill="#892A3E"/>
<path d="M72.7719 100.046H69.1456C68.8572 88.315 66.3097 78.6298 64.6968 73.6029C64.3016 72.3635 63.9598 71.4126 63.7195 70.7769C63.5272 70.2534 63.4044 69.9489 63.3723 69.8794C63.3723 69.8741 63.367 69.8688 63.367 69.8688C63.5058 69.3826 63.2335 67.5503 63.1694 67.1069C63.1694 67.0802 63.164 67.0642 63.1587 67.0481C63.1587 67.0375 63.1587 67.0268 63.1587 67.0214C63.1587 67.0161 63.1587 67.0107 63.1587 67.0107C64.5793 68.2394 66.4646 70.0931 68.3765 72.0697C72.398 76.2419 76.5157 80.9482 76.5157 81.4237C76.5157 82.1288 70.7531 84.4847 70.7531 84.4847L76.6225 88.2509C77.6853 91.6484 75.1698 96.4777 72.7772 100.046H72.7719Z" fill="#CEC3A7"/>
<path d="M47.7561 61.7334C47.7561 61.7334 46.8962 64.1961 46.8962 64.4685C46.8962 64.741 57.1022 72.0757 57.1022 72.0757L60.1731 71.3972L60.7125 67.8341L47.7614 61.7334H47.7561Z" fill="#DDAC95"/>
<path d="M42.2339 45.7761C42.2339 45.7761 40.0549 35.1561 34.9653 37.5279C29.8757 39.8998 33.8758 48.3777 33.8758 48.3777C33.8758 48.3777 37.0268 51.6524 41.3901 51.6524C41.3901 51.6524 43.2059 64.42 58.1117 68.2609C58.1117 68.2609 58.32 68.8486 62.7634 67.1017C63.4203 66.8453 64.0238 66.4874 64.5579 66.044C65.5085 65.2533 67.2122 63.8911 68.6915 63.015C69.9679 62.2564 71.0307 61.2308 71.8158 60.0234C73.4714 57.4966 75.7519 53.3993 75.1964 50.7496C75.1964 50.7496 76.7719 42.0473 79.0738 40.6905C81.3756 39.3336 81.0124 28.6013 81.0124 28.6013L67.4418 16.9609L45.6359 20.2356L40.0603 34.0235L42.2393 45.7761H42.2339Z" fill="#EDBA9D"/>
<path d="M68.2855 26.112C68.2855 26.112 64.2854 28.4839 57.9888 24.4186C57.9888 24.4186 48.6586 20.1235 45.7533 27.6933C45.7533 27.6933 45.9937 32.8911 43.4515 36.3955C40.9094 39.8999 42.2392 45.7762 42.2392 45.7762C42.2392 45.7762 39.697 37.3037 37.7584 37.3037C37.7584 37.3037 32.3056 26.908 34.4845 24.4239C36.6635 21.9398 44.541 14.5945 52.7816 13.5741C52.7816 13.5741 74.3472 2.16346 77.7385 20.5776C77.7385 20.5776 80.8895 26.7904 85.3703 28.0352C89.8511 29.2799 86.823 34.5899 86.823 34.5899L77.0068 43.9706C77.0068 43.9706 75.9173 36.8496 78.2192 32.4477C80.521 28.0405 72.4032 23.1845 68.2855 26.1173V26.112Z" fill="#50272F"/>
<path d="M85.1515 100.046H24.001C23.8942 99.8165 23.8301 99.5814 23.8194 99.3303C23.4562 90.6281 28.2628 75.8412 28.2628 75.8412C30.9545 75.8412 42.5811 68.4584 42.5811 68.4584L42.6719 68.4798L45.385 69.1957L45.684 69.2758L50.6028 70.5686L55.7565 71.1135L58.2452 71.3752H58.2506C58.2506 71.3752 58.2506 71.3699 58.2613 71.3645L60.4563 69.404L63.1373 67.0107H63.1426C63.1426 67.0107 63.1426 67.0107 63.1426 67.0214C63.5806 67.9136 65.7061 69.8634 68.3551 72.0697C73.7598 76.5731 81.3543 82.1662 81.3543 82.1662C83.3997 83.6406 84.6601 94.9017 85.1354 100.057L85.1515 100.046Z" fill="#FCE7DB"/>
<path d="M46.3569 72.5295C46.3569 72.5295 55.0248 90.6605 56.5896 91.964C58.1491 93.2675 64.3443 91.4618 64.3443 91.4618C64.3443 91.4618 66.7155 74.5862 63.3776 69.8691L58.2612 71.3756L46.3623 72.5295H46.3569Z" fill="white"/>
<path d="M54.4319 77.5511C54.4319 77.5511 56.5308 81.3653 57.2304 81.4668C57.9301 81.5683 60.2479 81.2638 60.2479 81.2638C60.2479 81.2638 62.9396 77.0436 62.6191 75.4409C62.2987 73.8383 60.3013 70.3713 59.2812 70.8735L58.2558 71.3756L53.6255 73.7368L54.4319 77.5511Z" fill="#9E3A16"/>
<path d="M58.2559 71.3756C58.2559 71.3756 53.946 75.7454 53.7324 81.6217C53.7324 81.6217 44.8455 72.9836 45.3849 69.2174C45.9243 65.4512 47.2702 63.3945 47.2702 63.3945C47.2702 63.3945 46.624 66.3594 58.2559 71.3809V71.3756Z" fill="#E0CCC1"/>
<path d="M63.1532 67.0059C63.1532 67.0059 64.8249 75.2433 63.5324 80.4145C63.5324 80.4145 60.1945 71.5253 58.2559 71.3757C58.2559 71.3757 59.7619 67.9087 60.4081 67.9087C61.0544 67.9087 63.1532 67.0059 63.1532 67.0059Z" fill="#E0CCC1"/>
<path d="M49.0593 100.046H43.6118C43.4356 99.8591 43.3394 99.7469 43.3394 99.7469C37.7905 89.3031 37.0375 88.3949 37.0375 88.3949L44.3595 84.7784L35.4727 82.3691C36.4874 77.1659 39.8093 72.0749 42.6719 68.4797C44.8135 65.7873 46.6934 63.9282 47.158 63.4848C47.2221 63.4261 47.2541 63.394 47.2595 63.3887C47.1794 63.5703 47.0993 63.7466 47.0192 63.9175C47.0192 63.9229 47.0191 63.9282 47.0138 63.9389C46.0845 66.1292 45.7694 67.9989 45.6786 69.2703C45.5985 70.4028 45.7 71.0652 45.7 71.0652C45.716 71.1293 45.7267 71.1934 45.7374 71.2576C47.5639 80.4513 48.5893 93.0265 49.0539 100.041L49.0593 100.046Z" fill="#E0CCC1"/>
<path d="M57.2305 81.4672L56.5842 91.9644L61.2146 98.9465C61.2146 98.9465 64.1199 94.5286 64.3389 91.4622C64.3389 91.4622 61.8608 82.4234 60.2479 81.2695L57.2305 81.4725V81.4672Z" fill="#9E3A16"/>
</g>
<defs>
<clipPath id="clip0_472_162">
<rect width="107" height="114" fill="white"/>
</clipPath>
</defs>
</svg>
