<svg width="109" height="116" viewBox="0 0 109 116" fill="none" xmlns="http://www.w3.org/2000/svg">
<g clip-path="url(#clip0_472_242)">
<path d="M102.471 0H6.52857C2.92294 0 0 2.92043 0 6.52296V109.477C0 113.08 2.92294 116 6.52857 116H102.471C106.077 116 109 113.08 109 109.477V6.52296C109 2.92043 106.077 0 102.471 0Z" fill="#892A3E"/>
<path d="M42.8492 64.8867L41.7503 64.9411L41.4619 66.6153L42.5555 66.7892L42.8492 64.8867Z" fill="#754F44"/>
<path d="M41.5762 56.2764C41.5762 56.2764 43.1974 66.0934 42.0386 69.5615C40.8798 73.0295 63.0824 87.7007 63.0824 87.7007L67.2444 79.6123C67.2444 79.6123 67.5925 71.2955 69.0941 69.5615C70.5957 67.8274 47.4737 57.0863 47.4737 57.0863L41.5762 56.2764Z" fill="#F2C5A6"/>
<path d="M98.8753 103.117H88.8485V102.9H11.0007C10.6308 90.0442 18.7969 82.9668 18.7969 82.9668C18.7969 82.9668 33.2468 78.1126 35.4448 75.1066C37.6428 72.1061 39.0301 72.5681 39.0301 72.5681L45.1561 74.9925L67.5273 75.7915L67.9897 72.0463L69.5512 70.6602L70.9385 75.9166C70.9385 75.9166 88.1794 89.4408 94.5338 91.7511C99.4847 93.5503 99.229 100.231 98.8699 103.112L98.8753 103.117Z" fill="#50272F"/>
<path d="M42.3869 64.9416C42.3869 64.9416 40.5371 64.0175 40.5371 66.6756C40.5371 69.3337 37.991 75.2261 37.991 75.2261C37.991 75.2261 50.9393 92.3217 52.5606 92.3217C52.5606 92.3217 56.2601 80.8848 59.149 82.1568C59.149 82.1568 60.8845 83.4505 59.8454 84.8366L61.9291 84.929C61.9291 84.929 63.3164 81.5806 58.9205 79.1508C54.5246 76.7264 45.2758 68.9858 45.2758 68.9858C45.2758 68.9858 40.5371 65.1753 42.3869 64.9416Z" fill="#513239"/>
<path d="M61.793 84.8149C61.793 84.8149 65.3891 79.7324 67.821 79.1562C67.821 79.1562 70.2475 75.112 69.4423 71.4156L69.9047 70.2578C69.9047 70.2578 71.526 70.7199 70.9439 75.4544C70.9439 75.4544 71.983 82.3851 72.6794 83.0809C72.6794 83.0809 72.7936 88.6254 70.4814 91.7455C70.4814 91.7455 66.7819 82.8526 65.0464 82.8526L63.387 84.7497L61.793 84.8149Z" fill="#513239"/>
<path d="M64.0508 103.118H60.6396L59.8398 84.8315C59.8398 84.8315 63.1585 84.4836 63.387 84.7445C63.5829 84.9674 63.9474 98.9211 64.0508 103.112V103.118Z" fill="#513239"/>
<path d="M43.7741 58.4732C43.7741 58.4732 45.0472 58.5873 45.5097 58.5873L46.0863 61.1313C46.0863 61.1313 46.0863 62.5174 49.2092 64.7135C52.332 66.9095 58.2295 71.8779 58.2295 71.8779C58.2295 71.8779 61.0041 72.9161 64.127 72.9161C67.2498 72.9161 69.0996 72.3399 69.4478 71.4158C69.796 70.4917 73.4955 64.9472 73.4955 64.9472C73.4955 64.9472 77.195 56.2825 77.195 55.4726C77.195 54.6627 78.1199 50.1564 78.1199 49.1182C78.1199 48.0799 78.6966 42.9974 79.5072 42.5354C80.3178 42.0734 74.6489 30.1744 74.6489 30.1744L56.6137 15.1553L39.3837 30.0602L38.2249 44.7315L38.4588 48.1995L41.4674 57.7883L43.7796 58.484L43.7741 58.4732Z" fill="#F2C5A6"/>
<path d="M54.4483 27.2058C54.4483 27.2058 58.4579 26.5915 59.9976 28.3636C61.5372 30.1357 56.2219 21.1992 56.2219 21.1992L53.9097 25.7435L54.4483 27.2058Z" fill="#AA4917"/>
<path d="M74.9915 61.6529C74.9915 61.6529 73.5117 61.354 71.5368 62.028C70.5086 62.3813 69.4531 62.6749 68.6316 62.751C66.2432 62.9847 62.1738 62.539 61.4066 62.6368C58.36 63.0173 58.3817 63.637 55.0685 62.5607C51.7552 61.4844 45.972 49.6996 45.972 49.6996C45.972 49.6996 44.0461 48.8516 43.8121 50.3139C43.5129 52.1946 44.5085 64.8709 45.8958 67.4095C47.2832 69.948 49.9816 74.264 51.9076 75.574C53.8335 76.8841 59.9214 77.732 63.2401 77.27C66.5588 76.808 71.9503 77.0363 72.3366 74.4216C72.7228 71.8016 74.6488 69.9534 74.8011 67.4149C74.9534 64.8709 76.5366 64.4306 74.9915 61.6584V61.6529Z" fill="#AA4917"/>
<path d="M54.4483 27.2067C54.4483 27.2067 55.297 24.0485 55.9879 24.0485C56.6789 24.0485 64.1595 36.5236 68.4738 36.6813C68.4738 36.6813 65.623 33.6753 65.3129 32.213C65.3129 32.213 73.4845 37.7575 75.4104 38.0674C75.4104 38.0674 79.8064 41.2256 79.8064 43.9217C79.8064 43.9217 87.9399 32.599 75.6825 18.7377C75.6825 18.7377 62.8484 8.57273 50.1285 15.0413C50.1285 15.0413 43.7686 11.807 37.1802 23.4723C37.1802 23.4723 33.9431 27.5165 35.2162 36.0616C35.2162 36.0616 35.3304 42.7639 33.9431 44.8404C33.9431 44.8404 35.7929 43.6826 36.1411 42.9922C36.1411 42.9922 41.9243 57.0873 40.7655 62.6318C40.7655 62.6318 43.7741 61.4739 43.7741 58.4734C43.7741 58.4734 41.81 56.8535 41.4619 55.587C41.1137 54.3204 37.2999 47.0365 39.1497 44.6121C40.9994 42.1877 43.5456 45.422 43.5456 45.422L44.008 49.4663C44.008 49.4663 45.3953 49.2325 45.3953 48.5422C45.3953 47.8518 45.7435 35.7191 45.7435 35.7191C45.7435 35.7191 47.5552 26.7827 54.4537 27.2067H54.4483Z" fill="#AA4917"/>
</g>
<defs>
<clipPath id="clip0_472_242">
<rect width="109" height="116" fill="white"/>
</clipPath>
</defs>
</svg>
