<svg width="107" height="114" viewBox="0 0 107 114" fill="none" xmlns="http://www.w3.org/2000/svg">
<g clip-path="url(#clip0_472_131)">
<path d="M100.591 0H6.40878C2.86931 0 0 2.87008 0 6.4105V107.59C0 111.13 2.86931 114 6.40878 114H100.591C104.131 114 107 111.13 107 107.59V6.4105C107 2.87008 104.131 0 100.591 0Z" fill="#882A3E"/>
<path d="M41.5663 55.7236L40.4715 55.7771L40.1777 57.4545L41.2779 57.6308L41.5663 55.7236Z" fill="#754F44"/>
<path d="M45.4009 53.9343L48.8776 64.2819L68.0933 53.6245L66.7849 42.5877L60.5309 39.5L45.4009 47.2941V53.9343Z" fill="#F18A68"/>
<path d="M45.9031 55.6695L47.6975 60.7659C47.6975 60.7659 58.6405 52.1384 57.0757 47.6778C55.5109 43.2172 45.9031 55.6695 45.9031 55.6695Z" fill="#E68065"/>
<path d="M33.0534 33.0889C33.0534 33.0889 36.0815 34.996 30.8744 42.1277C30.7248 42.3307 30.7462 42.6085 30.9224 42.7848C31.5099 43.3724 32.8718 44.5851 34.0948 44.6705C34.0948 44.6705 35.7824 49.0778 36.2898 53.501C36.5461 55.7554 38.4901 57.4755 40.7492 57.3313C41.0216 57.3152 41.3153 57.2779 41.6198 57.2191C41.999 57.1443 43.473 56.8345 43.473 56.8345L51.6922 53.1271C51.6922 53.1271 57.4815 50.1141 57.8286 45.4825L57.4815 44.3233C57.4815 44.3233 59.9115 44.6705 63.0411 42.0048C66.1707 39.3391 67.0947 39.3391 67.0947 39.3391L67.2122 26.5983L46.4904 19.301L30.1641 13.8574V22.5436L30.8583 30.6476L33.0587 33.0782L33.0534 33.0889Z" fill="#F18A68"/>
<path d="M32.936 22.5488C32.936 22.5488 36.0282 21.5392 36.3166 21.8811C36.605 22.223 31.008 14.0068 31.008 14.0068L30.0947 17.6021L31.4085 22.052L32.936 22.5488Z" fill="#E69F6E"/>
<path d="M31.0881 15.1396C31.0881 15.1396 35.6009 29.3816 46.6027 30.7706C46.6027 30.7706 41.9723 28.3399 40.1191 24.0556C40.1191 24.0556 47.9913 30.7706 53.663 31.3529C53.663 31.3529 54.9341 38.1854 53.0862 40.9633C53.0862 40.9633 54.7045 41.3105 56.0984 41.0808C56.0984 41.0808 57.3694 34.713 57.7166 34.0186C57.7166 34.0186 61.6526 27.4157 64.6648 32.3999C64.6648 32.3999 67.9065 36.6842 63.0466 42.0103C63.0466 42.0103 61.3108 46.0649 68.024 50.1142C68.024 50.1142 70.1069 37.4909 72.5369 35.29C72.5369 35.29 77.979 23.4786 70.454 15.9516C62.9291 8.42464 49.4973 8.8894 49.4973 8.8894C49.4973 8.8894 40.4663 11.6673 37.5716 11.5551C34.677 11.4429 29.582 13.1738 29.582 13.1738L29.4645 17.2284L27.7288 16.8812C27.7288 16.8812 21.1278 27.8805 26.5699 32.3999C26.5699 32.3999 24.252 23.484 27.7288 22.4423C27.7288 22.4423 27.9585 30.7812 33.0534 33.0944C33.0534 33.0944 31.3177 23.8312 32.9359 22.5544C32.9359 22.5544 30.7356 20.1238 31.0827 15.145L31.0881 15.1396Z" fill="#50272F"/>
<path d="M91.5495 100.506H21.4695C21.6137 100.143 21.7953 99.7744 22.0142 99.4112C26.7193 91.5369 30.1961 78.8762 33.7476 76.8676C34.6769 76.3441 38.1377 75.8793 42.7413 75.4733C44.2367 75.3398 45.8496 75.2169 47.5372 75.0994C47.6173 75.094 47.7028 75.0887 47.7882 75.0833C49.4545 74.9658 51.2009 74.859 52.9633 74.7575C64.8356 74.0737 77.7386 73.7051 77.7386 73.7051L90.396 80.4201C90.396 80.4201 91.4641 90.7837 91.5442 100.512L91.5495 100.506Z" fill="#F4CFA7"/>
<path d="M90.4014 80.4144C90.4014 80.4144 69.0975 78.9507 61.2254 100.26C61.2254 100.26 61.188 100.346 61.1239 100.506H30.5701C30.9493 91.168 31.8038 80.3343 33.7478 76.8673L42.5438 71.616L42.9177 71.2421L45.8604 68.2986L44.8617 64.5965C44.8617 64.5965 47.1742 62.2033 47.6388 62.2033H50.5708L51.1102 62.059L54.5015 61.1616L69.7811 57.123L69.8613 57.1016C69.8613 57.1016 71.8693 56.2522 73.7973 60.1893C75.7253 64.1264 87.1489 75.0884 87.1489 75.0884L90.3907 80.4144H90.4014Z" fill="#50272F"/>
<path d="M43.3181 73.7744C43.3181 73.7744 38.9174 86.1253 39.8467 90.7569C39.8467 90.7569 44.477 84.2716 45.4063 83.887C45.4063 83.887 46.7948 76.1677 48.1086 73.7744H43.3234H43.3181Z" fill="#AA4917"/>
<path d="M49.1074 63.7363C49.1074 63.7363 47.1794 65.2054 44.8616 64.5857C44.8616 64.5857 41.4809 73.6779 43.3181 73.7741C47.7188 74.0038 48.1033 73.7741 48.1033 73.7741C48.1033 73.7741 50.0313 70.7612 51.0354 70.4567C51.0354 70.4567 50.9606 64.5911 49.1074 63.7417V63.7363Z" fill="#AA4917"/>
<path d="M68.8677 53.084L70.5661 60.4934C70.5661 60.4934 54.3572 70.5312 45.4062 83.8864C45.4062 83.8864 46.8749 73.3892 51.0406 70.4511C51.0406 70.4511 50.7309 64.1955 49.1127 63.7361C49.1127 63.7361 60.1518 53.7785 68.8731 53.084H68.8677Z" fill="#F2C5A6"/>
</g>
<defs>
<clipPath id="clip0_472_131">
<rect width="107" height="114" fill="white"/>
</clipPath>
</defs>
</svg>
